<?xml version="1.0" encoding="utf-8"?>
<!-- Generator: Adobe Illustrator 21.0.0, SVG Export Plug-In . SVG Version: 6.00 Build 0)  -->
<svg version="1.1" id="Layer_1" xmlns="http://www.w3.org/2000/svg" xmlns:xlink="http://www.w3.org/1999/xlink" x="0px" y="0px"
	 width="1400px" height="980px" viewBox="0 0 1400 980" style="enable-background:new 0 0 1400 980;" xml:space="preserve">
<style type="text/css">
	.st0{fill-rule:evenodd;clip-rule:evenodd;fill:#9CD0F8;}
	.st1{fill-rule:evenodd;clip-rule:evenodd;fill:#EDB785;}
	.st2{fill-rule:evenodd;clip-rule:evenodd;fill:#FFFFFF;}
	.st3{fill-rule:evenodd;clip-rule:evenodd;fill:#E6E6E6;}
</style>
<g>
	<g>
		<rect y="0" class="st0" width="1400" height="980"/>
		<g>
			<path class="st1" d="M1023.3,290.4L725.1,118.2c-31-17.9-70.9-7.2-88.8,23.8l410.8,237.2C1064.9,348.2,1054.2,308.3,1023.3,290.4
				z"/>
			<path class="st2" d="M636.2,142L430.3,498.7c-17.9,31-7.2,70.9,23.8,88.8l185.6,107.1c31,17.9,70.9,7.2,88.8-23.8L903.4,368
				l31.1-53.8c17.9-31,57.8-41.7,88.8-23.8L725.1,118.2C694.1,100.3,654.1,111,636.2,142z"/>
			<path class="st1" d="M615.9,605.9L317.7,433.7c-17.9,31-7.2,70.9,23.8,88.8l298.2,172.2C608.7,676.8,598,636.8,615.9,605.9z"/>
			
				<rect x="694.7" y="172.9" transform="matrix(0.5 -0.866 0.866 0.5 105.3253 794.1773)" class="st0" width="91.5" height="265.9"/>
			<rect x="742.4" y="356.3" transform="matrix(0.5 -0.866 0.866 0.5 8.7181 860.6475)" class="st0" width="14.5" height="132.9"/>
			
				<rect x="730.6" y="376.7" transform="matrix(0.5 -0.866 0.866 0.5 -14.8907 860.6474)" class="st0" width="14.5" height="132.9"/>
			
				<rect x="718.8" y="397.2" transform="matrix(0.5 -0.866 0.866 0.5 -38.4971 860.6519)" class="st0" width="14.5" height="132.9"/>
			<rect x="707" y="417.6" transform="matrix(0.5 -0.866 0.866 0.5 -62.1032 860.6586)" class="st0" width="14.5" height="132.9"/>
			
				<rect x="695.2" y="438.1" transform="matrix(0.5 -0.866 0.866 0.5 -85.7201 860.6428)" class="st0" width="14.5" height="132.9"/>
			
				<rect x="683.4" y="458.5" transform="matrix(0.5 -0.866 0.866 0.5 -109.3269 860.6501)" class="st0" width="14.5" height="132.9"/>
			<rect x="567.8" y="324.2" transform="matrix(0.5 -0.866 0.866 0.5 -3.1545 679.4867)" class="st1" width="38.2" height="36.6"/>
			<rect x="544.2" y="365" transform="matrix(0.5 -0.866 0.866 0.5 -50.2953 679.5318)" class="st1" width="38.2" height="36.6"/>
			<rect x="520.6" y="405.9" transform="matrix(0.5 -0.866 0.866 0.5 -97.4616 679.5323)" class="st1" width="38.2" height="36.6"/>
			<rect x="633.7" y="330.5" transform="matrix(0.5 -0.866 0.866 0.5 8.7215 735.0895)" class="st0" width="14.5" height="59.1"/>
			<rect x="625" y="345.9" transform="matrix(0.5 -0.866 0.866 0.5 -3.5379 725.4567)" class="st0" width="3.1" height="39.8"/>
			<rect x="610.1" y="371.3" transform="matrix(0.5 -0.866 0.866 0.5 -38.4528 735.0714)" class="st0" width="14.5" height="59.1"/>
			<rect x="601.4" y="386.7" transform="matrix(0.5 -0.866 0.866 0.5 -50.7036 725.4538)" class="st0" width="3.1" height="39.8"/>
			<rect x="586.5" y="412.1" transform="matrix(0.5 -0.866 0.866 0.5 -85.6016 735.1057)" class="st0" width="14.5" height="59.1"/>
			<rect x="577.8" y="427.6" transform="matrix(0.5 -0.866 0.866 0.5 -97.8719 725.447)" class="st0" width="3.1" height="39.8"/>
			<polygon class="st3" points="660.1,244.3 802.7,309.2 802.7,96 660.1,160.8 			"/>
			<rect x="585.1" y="160.8" class="st1" width="74.9" height="83.6"/>
			<rect x="802.7" y="90.2" class="st1" width="14.9" height="224.7"/>
			<rect x="561.4" y="174.5" class="st3" width="23.8" height="56.2"/>
			<polygon class="st3" points="602.4,279 640.6,301.1 640.6,244.3 602.4,244.3 			"/>
			<path class="st1" d="M836,227.8v21.3c1,0.1,1.9,0.1,2.9,0.1c1,0,1.9,0,2.9-0.1v-21.3c-0.9,0.1-1.9,0.2-2.9,0.2
				C837.9,228,836.9,227.9,836,227.8z"/>
			<path class="st1" d="M861.7,193.3l18.5-10.7c-0.9-1.7-1.8-3.4-2.9-5l-18.5,10.7C859.9,189.8,860.9,191.5,861.7,193.3z"/>
			<path class="st1" d="M864.3,164.7c-1.6-1.1-3.2-2-5-2.9l-10.7,18.5c1.8,0.8,3.4,1.7,5,2.9L864.3,164.7z"/>
			<path class="st1" d="M848.7,225.9l10.7,18.5c1.7-0.9,3.4-1.8,5-2.9L853.7,223C852.1,224.2,850.5,225.2,848.7,225.9z"/>
			<path class="st1" d="M863.5,200.2c0.1,0.9,0.2,1.9,0.2,2.9s-0.1,1.9-0.2,2.9h21.3c0.1-1,0.1-1.9,0.1-2.9c0-1,0-1.9-0.1-2.9H863.5
				z"/>
			<path class="st1" d="M858.8,217.9l18.5,10.7c1.1-1.6,2-3.2,2.9-5L861.7,213C860.9,214.7,859.9,216.4,858.8,217.9z"/>
			<path class="st1" d="M836,157.1v21.3c0.9-0.1,1.9-0.2,2.9-0.2c1,0,1.9,0.1,2.9,0.2v-21.3c-1-0.1-1.9-0.1-2.9-0.1
				C837.9,157,836.9,157,836,157.1z"/>
		</g>
		<g>
			<path class="st2" d="M619.1,766.8c-5.7-5-7.5-8-7.5-12c0-4,1.6-5.5,4.4-5.5s4.4,1.5,4.4,5.5v2.3h8.2v-1.7
				c0-8.9-4.4-13.9-12.8-13.9c-8.5,0-12.8,5.1-12.8,13.9c0,6.3,2.3,10.9,9.6,17.4c5.7,5,7.5,8,7.5,12c0,4-1.7,5.4-4.5,5.4
				c-2.8,0-4.5-1.4-4.5-5.4v-4h-8.2v3.4c0,8.9,4.4,13.9,13,13.9c8.6,0,13-5.1,13-13.9C628.7,777.9,626.4,773.3,619.1,766.8z"/>
			<path class="st2" d="M648.8,766.8c-5.7-5-7.5-8-7.5-12c0-4,1.6-5.5,4.4-5.5c2.8,0,4.4,1.5,4.4,5.5v2.3h8.2v-1.7
				c0-8.9-4.4-13.9-12.8-13.9c-8.5,0-12.8,5.1-12.8,13.9c0,6.3,2.3,10.9,9.6,17.4c5.7,5,7.5,8,7.5,12c0,4-1.7,5.4-4.5,5.4
				c-2.8,0-4.5-1.4-4.5-5.4v-4h-8.2v3.4c0,8.9,4.4,13.9,13,13.9c8.6,0,13-5.1,13-13.9C658.4,777.9,656.1,773.3,648.8,766.8z"/>
			<polygon class="st2" points="574.9,797.5 598.7,797.5 598.7,789.6 583.6,789.6 583.6,773.3 595.6,773.3 595.6,765.4 583.6,765.4 
				583.6,750 598.7,750 598.7,742 574.9,742 			"/>
			<path class="st2" d="M569.2,782.2c0-5.8-1.4-9.9-5.8-11.7v-0.2c3.9-1.8,5.7-5.5,5.7-11.2v-4.4c0-8.6-3.9-12.8-12.9-12.8h-13.2
				v55.5h8.7v-22.6h3c4,0,5.7,1.9,5.7,7.1v8.7c0,4.5,0.3,5.4,0.8,6.8h8.9c-0.9-2.1-1-4-1-6.7V782.2z M560.4,761.1
				c0,4.4-2,5.9-5.2,5.9h-3.4v-17h4.2c3.1,0,4.4,1.7,4.4,5.7V761.1z"/>
			<path class="st2" d="M526,742h-12.8v55.5h8.7v-20.8h4.1c8.7,0,13-4.8,13-13.7v-7.2C539,746.9,534.7,742,526,742z M530.3,763.5
				c0,4-1.5,5.2-4.3,5.2h-4.1V750h4.1c2.8,0,4.3,1.3,4.3,5.2V763.5z"/>
			<polygon class="st2" points="707.5,797.5 731.3,797.5 731.3,789.6 716.2,789.6 716.2,773.3 728.2,773.3 728.2,765.4 716.2,765.4 
				716.2,750 731.3,750 731.3,742 707.5,742 			"/>
			<polygon class="st2" points="745.4,742 736.7,742 736.7,797.5 759.7,797.5 759.7,789.6 745.4,789.6 			"/>
			<polygon class="st2" points="854.6,797.5 878.4,797.5 878.4,789.6 863.3,789.6 863.3,773.3 875.3,773.3 875.3,765.4 863.3,765.4 
				863.3,750 878.4,750 878.4,742 854.6,742 			"/>
			<path class="st2" d="M840,766.8c-5.7-5-7.4-8-7.4-12c0-4,1.6-5.5,4.4-5.5c2.8,0,4.4,1.5,4.4,5.5v2.3h8.2v-1.7
				c0-8.9-4.4-13.9-12.8-13.9c-8.5,0-12.8,5.1-12.8,13.9c0,6.3,2.3,10.9,9.6,17.4c5.7,5,7.5,8,7.5,12c0,4-1.7,5.4-4.5,5.4
				c-2.8,0-4.5-1.4-4.5-5.4v-4h-8.2v3.4c0,8.9,4.4,13.9,13,13.9c8.6,0,13-5.1,13-13.9C849.6,777.9,847.3,773.3,840,766.8z"/>
			<polygon class="st2" points="763.5,797.5 787.3,797.5 787.3,789.6 772.3,789.6 772.3,773.3 784.2,773.3 784.2,765.4 772.3,765.4 
				772.3,750 787.3,750 787.3,742 763.5,742 			"/>
			<path class="st2" d="M799.3,742l-8.9,55.5h8l1.5-10.1h10.7l1.5,10.1h8.8l-8.9-55.5H799.3z M801,779.9l4.1-28.1h0.2l4.1,28.1H801z
				"/>
			<path class="st2" d="M701.8,782.2c0-5.8-1.4-9.9-5.8-11.7v-0.2c3.9-1.8,5.7-5.5,5.7-11.2v-4.4c0-8.6-3.9-12.8-12.9-12.8h-13.2
				v55.5h8.7v-22.6h3c4,0,5.7,1.9,5.7,7.1v8.7c0,4.5,0.3,5.4,0.8,6.8h8.9c-0.9-2.1-1-4-1-6.7V782.2z M693,761.1c0,4.4-2,5.9-5.2,5.9
				h-3.4v-17h4.2c3.1,0,4.4,1.7,4.4,5.7V761.1z"/>
			<path class="st2" d="M496,833.5c-1,0.4-2.1,0.7-3.1,0.7c-1,0-1.8-0.3-2.3-0.9c-0.6-0.6-0.8-1.5-0.9-2.6h6.8v-0.9
				c0-1.3-0.4-2.4-1.1-3.2c-0.7-0.8-1.7-1.2-2.9-1.2c-1.3,0-2.4,0.5-3.1,1.4c-0.8,0.9-1.2,2.2-1.2,3.8c0,1.6,0.4,2.8,1.3,3.7
				c0.8,0.9,2,1.3,3.4,1.3c0.7,0,1.2,0,1.7-0.1c0.5-0.1,1-0.3,1.5-0.5V833.5z M490.5,827.4c0.5-0.5,1.1-0.8,1.9-0.8
				c0.8,0,1.4,0.2,1.8,0.7c0.4,0.5,0.6,1.2,0.6,2.1h-5.1C489.8,828.6,490.1,827.9,490.5,827.4z"/>
			<path class="st2" d="M491.6,846.8c-0.2,0-0.5,0.1-0.6,0.2c-0.2,0.2-0.3,0.4-0.3,0.7c0,0.3,0.1,0.6,0.3,0.7
				c0.2,0.2,0.4,0.2,0.6,0.2c0.2,0,0.4-0.1,0.6-0.2c0.2-0.2,0.3-0.4,0.3-0.7c0-0.3-0.1-0.6-0.3-0.7
				C492,846.9,491.8,846.8,491.6,846.8z"/>
			<path class="st2" d="M486.1,850.8c-0.5,0.3-0.9,0.8-1.3,1.5h-0.1l-0.2-1.8h-1.2l0,9.8h1.5V855c0-1,0.3-1.8,0.8-2.4
				c0.6-0.6,1.2-1,2-1c0.3,0,0.7,0,1.1,0.1l0.2-1.4c-0.3-0.1-0.7-0.1-1.2-0.1C487.2,850.3,486.7,850.5,486.1,850.8z"/>
			<path class="st2" d="M498.8,854.7c-0.8-0.3-1.4-0.6-1.7-0.7c-0.3-0.2-0.5-0.3-0.6-0.5c-0.1-0.2-0.2-0.4-0.2-0.7
				c0-0.4,0.2-0.7,0.5-0.9c0.4-0.2,0.9-0.3,1.6-0.3c0.8,0,1.7,0.2,2.7,0.6l0.5-1.2c-1-0.4-2-0.6-3.1-0.6c-1.1,0-2,0.2-2.7,0.7
				c-0.7,0.5-1,1.1-1,1.9c0,0.5,0.1,0.8,0.3,1.2c0.2,0.3,0.5,0.6,0.9,0.9c0.4,0.3,1,0.5,1.9,0.9c1,0.4,1.6,0.7,1.9,1
				c0.3,0.3,0.5,0.6,0.5,1c0,0.5-0.2,0.9-0.6,1.1c-0.4,0.2-1,0.4-1.8,0.4c-0.5,0-1-0.1-1.6-0.2c-0.5-0.1-1-0.3-1.5-0.6v1.4
				c0.7,0.4,1.7,0.6,3,0.6c1.2,0,2.2-0.2,2.9-0.7c0.7-0.5,1-1.2,1-2.1c0-0.7-0.2-1.2-0.6-1.6C500.8,855.5,500,855.1,498.8,854.7z"/>
			<rect x="490.8" y="850.5" class="st2" width="1.5" height="9.8"/>
			<path class="st2" d="M586.6,852.1c0.3,0.4,0.5,1,0.5,1.8v6.4h1.5v-6.4c0-1.2-0.3-2.2-0.8-2.7c-0.6-0.6-1.4-0.8-2.5-0.8
				c-0.7,0-1.3,0.2-1.9,0.4c-0.6,0.3-1,0.7-1.3,1.2h-0.1c-0.5-1.1-1.5-1.7-3-1.7c-0.6,0-1.2,0.1-1.7,0.4c-0.5,0.3-0.9,0.6-1.2,1.1
				h-0.1l-0.2-1.3h-1.2v9.8h1.5v-5.1c0-1.3,0.2-2.2,0.6-2.7c0.4-0.6,1.1-0.8,2-0.8c0.7,0,1.2,0.2,1.6,0.6c0.3,0.4,0.5,1,0.5,1.8v6.4
				h1.5v-5.5c0-1.1,0.2-1.9,0.7-2.4c0.4-0.5,1.1-0.8,2-0.8C585.8,851.6,586.3,851.7,586.6,852.1z"/>
			<path class="st2" d="M568.2,850.3c-0.6,0-1.2,0.1-1.7,0.2c-0.6,0.1-1.1,0.4-1.6,0.6l0.5,1.1c1-0.5,2-0.8,2.8-0.8
				c0.7,0,1.3,0.2,1.6,0.5c0.3,0.4,0.5,0.9,0.5,1.7v0.6l-1.7,0.1c-3.2,0.1-4.7,1.1-4.7,3.1c0,0.9,0.3,1.6,0.8,2.1
				c0.5,0.5,1.3,0.7,2.3,0.7c0.7,0,1.3-0.1,1.8-0.3c0.5-0.2,1-0.6,1.5-1.3h0.1l0.3,1.4h1.1v-6.7c0-1.1-0.3-2-0.8-2.5
				C570.2,850.6,569.3,850.3,568.2,850.3z M570.1,856.3c0,0.9-0.3,1.6-0.8,2.1c-0.5,0.5-1.3,0.8-2.2,0.8c-0.6,0-1-0.1-1.4-0.4
				c-0.3-0.3-0.5-0.7-0.5-1.2c0-0.7,0.3-1.2,0.8-1.5c0.5-0.3,1.4-0.5,2.6-0.5l1.5-0.1V856.3z"/>
			<path class="st2" d="M564.3,835.3v-5.5c0-1.1,0.2-1.9,0.7-2.5c0.4-0.5,1.1-0.8,2-0.8c0.7,0,1.2,0.2,1.6,0.6
				c0.3,0.4,0.5,1,0.5,1.8v6.4h1.5v-6.4c0-1.2-0.3-2.2-0.8-2.7c-0.6-0.6-1.4-0.9-2.5-0.9c-0.7,0-1.3,0.2-1.9,0.4
				c-0.6,0.3-1,0.7-1.3,1.2H564c-0.5-1.1-1.5-1.7-3-1.7c-0.6,0-1.2,0.1-1.7,0.4c-0.5,0.3-0.9,0.6-1.2,1.1H558l-0.2-1.3h-1.2v9.8h1.5
				v-5.1c0-1.3,0.2-2.2,0.6-2.7c0.4-0.6,1.1-0.8,2-0.8c0.7,0,1.2,0.2,1.6,0.6c0.3,0.4,0.5,1,0.5,1.8v6.4H564.3z"/>
			<rect x="559.8" y="846.3" class="st2" width="1.5" height="13.9"/>
			<path class="st2" d="M598.4,875.2c-1.3,0-2.4,0.5-3.1,1.4c-0.8,0.9-1.2,2.2-1.2,3.8c0,1.6,0.4,2.8,1.3,3.7c0.8,0.9,2,1.3,3.4,1.3
				c0.7,0,1.2,0,1.7-0.1c0.5-0.1,1-0.3,1.5-0.5v-1.3c-1,0.4-2.1,0.7-3.1,0.7c-1,0-1.8-0.3-2.3-0.9c-0.6-0.6-0.8-1.5-0.9-2.6h6.8
				v-0.9c0-1.3-0.4-2.4-1.1-3.2C600.6,875.6,599.6,875.2,598.4,875.2z M595.6,879.4c0.1-0.9,0.4-1.6,0.8-2.1
				c0.5-0.5,1.1-0.8,1.9-0.8c0.8,0,1.4,0.2,1.8,0.7c0.4,0.5,0.6,1.2,0.6,2.1H595.6z"/>
			<rect x="604.9" y="871.3" class="st2" width="1.5" height="13.9"/>
			<rect x="555.2" y="846.3" class="st2" width="1.5" height="13.9"/>
			<path class="st2" d="M589.1,881.9c-0.3,1-0.6,1.6-0.6,2h-0.1c-0.1-0.4-0.4-1.3-0.8-2.6l-2.1-5.8h-1.6l3.7,9.8h1.7l3.7-9.8h-1.6
				C590.2,878.8,589.5,880.9,589.1,881.9z"/>
			<path class="st2" d="M550.6,855.6c0,1.3-0.2,2.2-0.7,2.7c-0.5,0.6-1.2,0.8-2.3,0.8c-0.8,0-1.3-0.2-1.7-0.6
				c-0.4-0.4-0.5-1-0.5-1.8v-6.4h-1.5v6.4c0,1.2,0.3,2.1,0.9,2.7c0.6,0.6,1.5,0.9,2.7,0.9c0.7,0,1.3-0.1,1.8-0.4
				c0.5-0.3,1-0.6,1.3-1.1h0.1l0.2,1.3h1.2v-9.8h-1.5V855.6z"/>
			<path class="st2" d="M521.5,850.3c-1.3,0-2.4,0.5-3.1,1.4c-0.8,0.9-1.2,2.2-1.2,3.8c0,1.6,0.4,2.8,1.3,3.7c0.8,0.9,2,1.3,3.4,1.3
				c0.7,0,1.2,0,1.7-0.1c0.5-0.1,1-0.3,1.5-0.5v-1.3c-1,0.4-2.1,0.7-3.1,0.7c-1,0-1.8-0.3-2.3-0.9c-0.5-0.6-0.8-1.5-0.9-2.6h6.8
				v-0.9c0-1.3-0.4-2.4-1.1-3.2C523.7,850.7,522.7,850.3,521.5,850.3z M518.7,854.4c0.1-0.9,0.4-1.6,0.8-2.1
				c0.5-0.5,1.1-0.8,1.9-0.8c0.8,0,1.4,0.2,1.8,0.7c0.4,0.5,0.6,1.2,0.6,2.1H518.7z"/>
			<path class="st2" d="M552,830.7c0,1.3-0.2,2.2-0.7,2.8c-0.5,0.6-1.2,0.8-2.3,0.8c-0.8,0-1.3-0.2-1.7-0.6c-0.4-0.4-0.5-1-0.5-1.8
				v-6.4h-1.5v6.4c0,1.2,0.3,2.2,0.9,2.7c0.6,0.6,1.5,0.8,2.7,0.8c0.7,0,1.3-0.1,1.8-0.4c0.5-0.3,1-0.6,1.3-1.1h0.1l0.2,1.3h1.2
				v-9.8H552V830.7z"/>
			<path class="st2" d="M528.2,835.2c0.5,0.2,1.1,0.4,1.8,0.4c1.3,0,2.3-0.4,3-1.3c0.7-0.9,1.1-2.1,1.1-3.8c0-1.6-0.4-2.9-1.1-3.7
				c-0.7-0.9-1.7-1.3-3-1.3c-0.7,0-1.2,0.1-1.7,0.4c-0.5,0.2-1,0.6-1.3,1.2h-0.1l-0.2-1.3h-1.2v14.2h1.5v-4c0-0.5,0-1.1-0.1-1.6h0.1
				C527.2,834.6,527.7,834.9,528.2,835.2z M526.9,830.1c0-1.2,0.2-2.1,0.7-2.7c0.4-0.5,1.2-0.8,2.2-0.8c0.9,0,1.5,0.3,2,1
				c0.5,0.7,0.7,1.6,0.7,2.8c0,1.2-0.2,2.1-0.7,2.8c-0.5,0.7-1.1,1-2,1c-1,0-1.8-0.3-2.2-0.9c-0.5-0.6-0.7-1.6-0.7-3V830.1z"/>
			<path class="st2" d="M512.3,854.7c-0.8-0.3-1.4-0.6-1.7-0.7c-0.3-0.2-0.5-0.3-0.6-0.5c-0.1-0.2-0.2-0.4-0.2-0.7
				c0-0.4,0.2-0.7,0.5-0.9c0.4-0.2,0.9-0.3,1.6-0.3c0.8,0,1.7,0.2,2.7,0.6l0.5-1.2c-1-0.4-2-0.6-3.1-0.6c-1.1,0-2,0.2-2.7,0.7
				c-0.7,0.5-1,1.1-1,1.9c0,0.5,0.1,0.8,0.3,1.2c0.2,0.3,0.5,0.6,0.9,0.9c0.4,0.3,1,0.5,1.9,0.9c1,0.4,1.6,0.7,1.9,1
				c0.3,0.3,0.5,0.6,0.5,1c0,0.5-0.2,0.9-0.6,1.1c-0.4,0.2-1,0.4-1.8,0.4c-0.5,0-1-0.1-1.6-0.2c-0.5-0.1-1-0.3-1.5-0.6v1.4
				c0.7,0.4,1.7,0.6,3,0.6c1.2,0,2.2-0.2,2.9-0.7c0.7-0.5,1-1.2,1-2.1c0-0.7-0.2-1.2-0.6-1.6C514.3,855.5,513.5,855.1,512.3,854.7z"
				/>
			<path class="st2" d="M510.9,827.2c0.3,0.4,0.5,1,0.5,1.8v6.4h1.5l0-6.4c0-1.2-0.3-2.2-0.8-2.7c-0.6-0.6-1.4-0.9-2.5-0.9
				c-0.7,0-1.3,0.2-1.9,0.4c-0.6,0.3-1,0.7-1.3,1.2h-0.1c-0.5-1.1-1.5-1.7-3-1.7c-0.6,0-1.2,0.1-1.7,0.4c-0.5,0.3-0.9,0.6-1.2,1.1
				h-0.1l-0.2-1.3H499v9.8h1.5v-5.1c0-1.3,0.2-2.2,0.6-2.7c0.4-0.6,1.1-0.8,2-0.8c0.7,0,1.2,0.2,1.6,0.6c0.3,0.4,0.5,1,0.5,1.8v6.4
				h1.5v-5.5c0-1.1,0.2-1.9,0.7-2.5c0.4-0.5,1.1-0.8,2.1-0.8C510.1,826.6,510.6,826.8,510.9,827.2z"/>
			<path class="st2" d="M534.6,850.3l0,0.7l0.1,0.7h-0.1c-0.7-1-1.7-1.4-3.1-1.4c-1.3,0-2.3,0.4-3,1.3c-0.7,0.9-1.1,2.1-1.1,3.8
				c0,1.6,0.4,2.9,1.1,3.7c0.7,0.9,1.7,1.3,3,1.3c1.4,0,2.4-0.5,3.1-1.5h0.1l0.2,1.3h1.2v-13.9h-1.5V850.3z M534.6,855.7
				c0,1.2-0.2,2.1-0.7,2.7c-0.5,0.5-1.2,0.8-2.2,0.8c-0.9,0-1.6-0.3-2-1c-0.5-0.6-0.7-1.6-0.7-2.8c0-1.2,0.2-2.2,0.7-2.9
				c0.5-0.7,1.1-1,2-1c1,0,1.7,0.3,2.2,0.9c0.5,0.6,0.7,1.6,0.7,3V855.7z"/>
			<path class="st2" d="M540,829.8c-0.8-0.3-1.4-0.6-1.7-0.7c-0.3-0.2-0.5-0.3-0.6-0.5c-0.1-0.2-0.2-0.4-0.2-0.7
				c0-0.4,0.2-0.7,0.5-0.9c0.4-0.2,0.9-0.3,1.6-0.3c0.8,0,1.7,0.2,2.7,0.6l0.5-1.2c-1-0.4-2-0.6-3.1-0.6c-1.1,0-2,0.2-2.7,0.7
				c-0.7,0.5-1,1.1-1,1.9c0,0.5,0.1,0.8,0.3,1.2c0.2,0.3,0.5,0.6,0.9,0.9c0.4,0.3,1,0.5,1.9,0.9c1,0.4,1.6,0.7,1.9,1
				c0.3,0.3,0.5,0.6,0.5,1c0,0.5-0.2,0.9-0.6,1.1c-0.4,0.2-1,0.4-1.8,0.4c-0.5,0-1-0.1-1.6-0.2c-0.5-0.1-1-0.3-1.5-0.6v1.4
				c0.7,0.4,1.7,0.6,3,0.6c1.2,0,2.2-0.2,2.9-0.7c0.7-0.5,1-1.2,1-2.1c0-0.7-0.2-1.2-0.6-1.6C541.9,830.6,541.1,830.2,540,829.8z"/>
			<path class="st2" d="M595.7,851.6c0.3,0,0.6,0,1,0.1c0.4,0.1,0.7,0.2,1.1,0.3l0.5-1.3c-0.3-0.1-0.6-0.3-1.1-0.4
				c-0.5-0.1-0.9-0.2-1.4-0.2c-1.5,0-2.6,0.4-3.4,1.3c-0.8,0.9-1.2,2.2-1.2,3.8c0,1.6,0.4,2.8,1.2,3.7c0.8,0.9,1.9,1.3,3.3,1.3
				c1,0,1.8-0.2,2.5-0.5v-1.3c-0.9,0.3-1.7,0.5-2.5,0.5c-1,0-1.7-0.3-2.2-1c-0.5-0.6-0.7-1.6-0.7-2.8
				C592.7,852.9,593.7,851.6,595.7,851.6z"/>
			<path class="st2" d="M775.8,835.5c0.7,0,1.2,0,1.7-0.1c0.5-0.1,1-0.3,1.5-0.5v-1.3c-1,0.4-2.1,0.7-3.1,0.7c-1,0-1.8-0.3-2.3-0.9
				c-0.5-0.6-0.8-1.5-0.9-2.6h6.8v-0.9c0-1.3-0.4-2.4-1.1-3.2c-0.7-0.8-1.7-1.2-2.9-1.2c-1.3,0-2.4,0.5-3.1,1.4
				c-0.8,0.9-1.2,2.2-1.2,3.8c0,1.6,0.4,2.8,1.3,3.7C773.2,835.1,774.3,835.5,775.8,835.5z M773.5,827.4c0.5-0.5,1.1-0.8,1.9-0.8
				c0.8,0,1.4,0.2,1.8,0.7c0.4,0.5,0.6,1.2,0.6,2.1h-5.1C772.7,828.6,773,827.9,773.5,827.4z"/>
			<path class="st2" d="M485.9,826.7c0.3,0,0.7,0,1.1,0.1l0.2-1.4c-0.3-0.1-0.7-0.1-1.2-0.1c-0.6,0-1.2,0.2-1.7,0.5
				c-0.5,0.3-0.9,0.8-1.3,1.5H483l-0.2-1.8h-1.2v9.8h1.5v-5.3c0-1,0.3-1.8,0.8-2.4C484.5,827,485.1,826.7,485.9,826.7z"/>
			<path class="st2" d="M791.8,835.5c0.7,0,1.3-0.1,1.8-0.4c0.5-0.3,1-0.6,1.3-1.1h0.1l0.2,1.3h1.2v-9.8H795v5.2
				c0,1.3-0.2,2.2-0.7,2.8c-0.5,0.6-1.2,0.8-2.3,0.8c-0.8,0-1.3-0.2-1.7-0.6c-0.4-0.4-0.5-1-0.5-1.8v-6.4h-1.5v6.4
				c0,1.2,0.3,2.2,0.9,2.7C789.8,835.2,790.6,835.5,791.8,835.5z"/>
			<path class="st2" d="M792.2,851.6c-0.7,0.9-1.1,2.1-1.1,3.8c0,1.6,0.4,2.9,1.1,3.7c0.7,0.9,1.7,1.3,3,1.3c1.4,0,2.4-0.5,3.1-1.5
				h0.1l0.2,1.3h1.2l0-13.9h-1.5v4l0,0.7l0.1,0.7h-0.1c-0.7-1-1.7-1.4-3.1-1.4C793.9,850.3,792.9,850.7,792.2,851.6z M797.6,852.4
				c0.5,0.6,0.7,1.6,0.7,3v0.3c0,1.2-0.2,2.1-0.7,2.7c-0.5,0.5-1.2,0.8-2.2,0.8c-0.9,0-1.6-0.3-2-1c-0.5-0.6-0.7-1.6-0.7-2.8
				c0-1.2,0.2-2.2,0.7-2.9c0.5-0.7,1.1-1,2-1C796.4,851.5,797.1,851.8,797.6,852.4z"/>
			<path class="st2" d="M727.7,830.2c0-1.3,0.2-2.2,0.7-2.8c0.5-0.5,1.2-0.8,2.3-0.8c0.8,0,1.3,0.2,1.7,0.6c0.4,0.4,0.5,1,0.5,1.8
				v6.3h1.5v-6.4c0-1.2-0.3-2.2-0.9-2.7c-0.6-0.6-1.5-0.9-2.7-0.9c-0.7,0-1.3,0.1-1.8,0.4c-0.5,0.3-1,0.6-1.3,1.1h-0.1l-0.2-1.3
				h-1.2v9.8h1.5V830.2z"/>
			<path class="st2" d="M737.9,829.9c0.4,0.3,1,0.5,1.9,0.9c1,0.4,1.6,0.7,1.9,1c0.3,0.3,0.5,0.6,0.5,1c0,0.5-0.2,0.9-0.6,1.1
				c-0.4,0.2-1,0.4-1.8,0.4c-0.5,0-1-0.1-1.6-0.2c-0.5-0.1-1-0.3-1.5-0.6v1.4c0.7,0.4,1.7,0.6,3,0.6c1.2,0,2.2-0.2,2.9-0.7
				c0.7-0.5,1-1.2,1-2.1c0-0.7-0.2-1.2-0.6-1.6c-0.4-0.4-1.2-0.9-2.4-1.3c-0.8-0.3-1.4-0.6-1.7-0.7c-0.3-0.2-0.5-0.3-0.6-0.5
				c-0.1-0.2-0.2-0.4-0.2-0.7c0-0.4,0.2-0.7,0.5-0.9c0.4-0.2,0.9-0.3,1.6-0.3c0.8,0,1.7,0.2,2.7,0.6l0.5-1.2c-1-0.4-2-0.6-3.1-0.6
				c-1.1,0-2,0.2-2.7,0.7c-0.6,0.5-1,1.1-1,1.9c0,0.5,0.1,0.8,0.3,1.2C737.3,829.4,737.6,829.7,737.9,829.9z"/>
			<rect x="726" y="846.3" class="st2" width="1.5" height="13.9"/>
			<rect x="833.3" y="825.5" class="st2" width="1.5" height="9.8"/>
			<path class="st2" d="M906,835.5c0.7,0,1.2,0,1.7-0.1c0.5-0.1,1-0.3,1.5-0.5v-1.3c-1,0.4-2.1,0.7-3.1,0.7c-1,0-1.8-0.3-2.3-0.9
				c-0.5-0.6-0.8-1.5-0.9-2.6h6.8v-0.9c0-1.3-0.4-2.4-1.1-3.2c-0.7-0.8-1.7-1.2-2.9-1.2c-1.3,0-2.4,0.5-3.1,1.4
				c-0.8,0.9-1.2,2.2-1.2,3.8c0,1.6,0.4,2.8,1.3,3.7C903.4,835.1,904.6,835.5,906,835.5z M903.7,827.4c0.5-0.5,1.1-0.8,1.9-0.8
				c0.8,0,1.4,0.3,1.8,0.7c0.4,0.5,0.6,1.2,0.6,2.1h-5.1C903,828.6,903.3,827.9,903.7,827.4z"/>
			<path class="st2" d="M710.1,850.5v6.4c0,1.2,0.3,2.2,0.9,2.7c0.6,0.6,1.5,0.9,2.7,0.9c0.7,0,1.3-0.1,1.8-0.4
				c0.5-0.3,1-0.6,1.3-1.1h0.1l0.2,1.3h1.2v-9.8h-1.5v5.1c0,1.3-0.2,2.2-0.7,2.7c-0.5,0.6-1.2,0.8-2.3,0.8c-0.8,0-1.3-0.2-1.7-0.6
				c-0.4-0.4-0.5-1-0.5-1.8v-6.4H710.1z"/>
			<path class="st2" d="M834,823.9c0.2,0,0.4-0.1,0.6-0.2c0.2-0.2,0.3-0.4,0.3-0.7c0-0.3-0.1-0.6-0.3-0.7c-0.2-0.2-0.4-0.2-0.6-0.2
				c-0.3,0-0.5,0.1-0.6,0.2c-0.2,0.2-0.3,0.4-0.3,0.7c0,0.3,0.1,0.6,0.3,0.7C833.6,823.8,833.8,823.9,834,823.9z"/>
			<path class="st2" d="M872,823.9c0.2,0,0.4-0.1,0.6-0.2c0.2-0.2,0.3-0.4,0.3-0.7c0-0.3-0.1-0.6-0.3-0.7c-0.2-0.2-0.4-0.2-0.6-0.2
				c-0.2,0-0.5,0.1-0.6,0.2c-0.2,0.2-0.2,0.4-0.2,0.7c0,0.3,0.1,0.6,0.2,0.7C871.5,823.8,871.7,823.9,872,823.9z"/>
			<path class="st2" d="M917.5,823.9c0.2,0,0.4-0.1,0.6-0.2c0.2-0.2,0.3-0.4,0.3-0.7c0-0.3-0.1-0.6-0.3-0.7
				c-0.2-0.2-0.4-0.2-0.6-0.2c-0.3,0-0.5,0.1-0.6,0.2c-0.2,0.2-0.2,0.4-0.2,0.7c0,0.3,0.1,0.6,0.2,0.7
				C917.1,823.8,917.3,823.9,917.5,823.9z"/>
			<rect x="916.8" y="825.5" class="st2" width="1.5" height="9.8"/>
			<rect x="849.1" y="825.5" class="st2" width="1.5" height="9.8"/>
			<rect x="871.2" y="825.5" class="st2" width="1.5" height="9.8"/>
			<path class="st2" d="M849.9,823.9c0.2,0,0.4-0.1,0.6-0.2c0.2-0.2,0.3-0.4,0.3-0.7c0-0.3-0.1-0.6-0.3-0.7
				c-0.2-0.2-0.4-0.2-0.6-0.2c-0.2,0-0.5,0.1-0.6,0.2c-0.2,0.2-0.2,0.4-0.2,0.7c0,0.3,0.1,0.6,0.2,0.7
				C849.4,823.8,849.6,823.9,849.9,823.9z"/>
			<path class="st2" d="M782,832.5c0,2,0.9,3,2.8,3c0.3,0,0.5,0,0.8-0.1c0.3,0,0.5-0.1,0.7-0.2v-1.1c-0.1,0-0.3,0.1-0.6,0.1
				c-0.2,0-0.5,0.1-0.8,0.1c-0.5,0-0.9-0.2-1.2-0.5c-0.3-0.3-0.4-0.8-0.4-1.4v-5.8h2.8v-1.2h-2.8v-2.3h-0.9l-0.6,2.1l-1.4,0.6v0.7
				h1.4V832.5z"/>
			<rect x="520.7" y="825.5" class="st2" width="1.5" height="9.8"/>
			<polygon class="st2" points="468.5,834 462.7,834 462.7,822.2 461.2,822.2 461.2,835.3 468.5,835.3 			"/>
			<path class="st2" d="M591.2,834.9c0.7,0.4,1.5,0.6,2.3,0.6c1.4,0,2.5-0.4,3.3-1.3c0.8-0.9,1.2-2.1,1.2-3.7c0-1.6-0.4-2.8-1.2-3.7
				c-0.8-0.9-1.9-1.4-3.3-1.4c-1.4,0-2.5,0.4-3.3,1.3c-0.8,0.9-1.2,2.1-1.2,3.7c0,1,0.2,1.9,0.6,2.7
				C590,833.9,590.5,834.5,591.2,834.9z M591.3,827.6c0.5-0.6,1.2-1,2.2-1c1,0,1.7,0.3,2.2,1c0.5,0.6,0.8,1.6,0.8,2.8
				c0,1.3-0.3,2.2-0.8,2.9c-0.5,0.7-1.2,1-2.2,1c-1,0-1.7-0.3-2.2-1c-0.5-0.7-0.8-1.6-0.8-2.9C590.6,829.2,590.8,828.2,591.3,827.6z
				"/>
			<path class="st2" d="M581.9,835.5c1.4,0,2.4-0.5,3.1-1.5h0.1l0.2,1.3h1.2v-13.9H585v4l0,0.7l0.1,0.7H585c-0.7-1-1.7-1.4-3.1-1.4
				c-1.3,0-2.3,0.4-3,1.3c-0.7,0.9-1.1,2.1-1.1,3.8c0,1.6,0.4,2.9,1.1,3.7C579.6,835.1,580.6,835.5,581.9,835.5z M580.1,827.6
				c0.5-0.7,1.1-1,2-1c1,0,1.8,0.3,2.2,0.9c0.5,0.6,0.7,1.6,0.7,3v0.3c0,1.2-0.2,2.1-0.7,2.7c-0.5,0.5-1.2,0.8-2.2,0.8
				c-0.9,0-1.6-0.3-2-1c-0.5-0.6-0.7-1.6-0.7-2.8C579.4,829.2,579.6,828.3,580.1,827.6z"/>
			<path class="st2" d="M521.5,823.9c0.2,0,0.4-0.1,0.6-0.2c0.2-0.2,0.3-0.4,0.3-0.7c0-0.3-0.1-0.6-0.3-0.7
				c-0.2-0.2-0.4-0.2-0.6-0.2c-0.3,0-0.5,0.1-0.6,0.2c-0.2,0.2-0.3,0.4-0.3,0.7c0,0.3,0.1,0.6,0.3,0.7
				C521,823.8,521.2,823.9,521.5,823.9z"/>
			<path class="st2" d="M452.1,858L452.1,858l-4.2-10.8h-2.3v13.1h1.4V852c0-1.3,0-2.4-0.1-3.3h0.1l4.4,11.6h1.2l4.5-11.6h0.1
				c-0.1,1.1-0.1,2.2-0.1,3.2v8.4h1.5v-13.1h-2.3L452.1,858z"/>
			<path class="st2" d="M478.7,855.6c0,1.3-0.2,2.2-0.7,2.7c-0.5,0.6-1.2,0.8-2.3,0.8c-0.8,0-1.3-0.2-1.7-0.6
				c-0.4-0.4-0.5-1-0.5-1.8v-6.4H472v6.4c0,1.2,0.3,2.2,0.9,2.7c0.6,0.6,1.5,0.9,2.7,0.9c0.7,0,1.3-0.1,1.8-0.4
				c0.5-0.3,1-0.6,1.3-1.1h0.1l0.2,1.3h1.2v-9.8h-1.5V855.6z"/>
			<path class="st2" d="M465.6,850.3c-0.6,0-1.2,0.1-1.7,0.2c-0.6,0.2-1.1,0.4-1.6,0.6l0.5,1.1c1-0.5,2-0.8,2.8-0.8
				c0.7,0,1.3,0.2,1.6,0.5c0.3,0.4,0.5,0.9,0.5,1.7v0.6l-1.7,0.1c-3.2,0.1-4.7,1.1-4.7,3.1c0,0.9,0.3,1.6,0.8,2.1
				c0.6,0.5,1.3,0.7,2.3,0.7c0.7,0,1.3-0.1,1.8-0.3c0.5-0.2,1-0.6,1.5-1.3h0.1l0.3,1.4h1.1v-6.7c0-1.1-0.3-2-0.8-2.5
				C467.6,850.6,466.8,850.3,465.6,850.3z M467.6,856.3c0,0.9-0.3,1.6-0.8,2.1c-0.5,0.5-1.3,0.8-2.2,0.8c-0.6,0-1-0.1-1.4-0.4
				c-0.3-0.3-0.5-0.7-0.5-1.2c0-0.7,0.3-1.2,0.8-1.5c0.5-0.3,1.4-0.5,2.5-0.5l1.5-0.1V856.3z"/>
			<path class="st2" d="M684.6,835.5c0.7,0,1.2,0,1.7-0.1c0.5-0.1,1-0.3,1.5-0.5v-1.3c-1,0.4-2.1,0.7-3.1,0.7c-1,0-1.8-0.3-2.3-0.9
				c-0.5-0.6-0.8-1.5-0.9-2.6h6.8v-0.9c0-1.3-0.4-2.4-1.1-3.2c-0.7-0.8-1.7-1.2-2.9-1.2c-1.3,0-2.4,0.5-3.1,1.4
				c-0.8,0.9-1.2,2.2-1.2,3.8c0,1.6,0.4,2.8,1.3,3.7C682,835.1,683.1,835.5,684.6,835.5z M682.3,827.4c0.5-0.5,1.1-0.8,1.9-0.8
				c0.8,0,1.4,0.2,1.8,0.7c0.4,0.5,0.6,1.2,0.6,2.1h-5.1C681.5,828.6,681.8,827.9,682.3,827.4z"/>
			<path class="st2" d="M710.3,835.5c1,0,1.8-0.2,2.5-0.5v-1.3c-0.9,0.4-1.7,0.5-2.5,0.5c-1,0-1.7-0.3-2.2-1
				c-0.5-0.6-0.7-1.6-0.7-2.8c0-2.5,1-3.8,3-3.8c0.3,0,0.6,0,1,0.1c0.4,0.1,0.7,0.2,1.1,0.3l0.5-1.3c-0.3-0.1-0.6-0.3-1.1-0.4
				c-0.5-0.1-0.9-0.2-1.4-0.2c-1.5,0-2.6,0.4-3.4,1.3c-0.8,0.9-1.2,2.2-1.2,3.8c0,1.6,0.4,2.8,1.2,3.7
				C707.8,835.1,708.9,835.5,710.3,835.5z"/>
			<path class="st2" d="M698.2,835.5c0.3-0.8,0.5-1.5,0.7-2.1l-0.1-0.2h-1.6c-0.1,0.5-0.2,1.3-0.4,2.2c-0.2,0.9-0.4,1.7-0.5,2.3h1.1
				C697.6,837,697.9,836.3,698.2,835.5z"/>
			<path class="st2" d="M686.8,858.4c-0.2,0.2-0.3,0.5-0.3,0.9c0,0.4,0.1,0.7,0.3,0.9c0.2,0.2,0.5,0.3,0.8,0.3
				c0.3,0,0.6-0.1,0.8-0.3c0.2-0.2,0.3-0.5,0.3-0.9c0-0.4-0.1-0.7-0.3-0.9c-0.2-0.2-0.5-0.3-0.8-0.3
				C687.2,858.1,687,858.2,686.8,858.4z"/>
			<path class="st2" d="M705.5,858.1L705.5,858.1l-7.2-10.9h-1.7v13.1h1.4v-7.4c0-1.1,0-2.3-0.1-3.5h0.1l7.1,11h1.7v-13.1h-1.4v7.5
				c0,0.4,0,1,0,1.9C705.5,857.4,705.5,858,705.5,858.1z"/>
			<rect x="600.7" y="821.4" class="st2" width="1.5" height="13.9"/>
			<path class="st2" d="M655.6,835.5c0.7,0,1.3-0.1,1.8-0.3c0.5-0.2,1-0.6,1.5-1.3h0.1l0.3,1.4h1.1v-6.7c0-1.1-0.3-2-0.8-2.5
				c-0.6-0.5-1.4-0.8-2.6-0.8c-0.6,0-1.2,0.1-1.7,0.2c-0.6,0.2-1.1,0.4-1.6,0.6l0.5,1.1c1-0.5,2-0.7,2.8-0.7c0.7,0,1.3,0.2,1.6,0.5
				c0.3,0.4,0.5,0.9,0.5,1.7v0.6l-1.7,0.1c-3.2,0.1-4.7,1.1-4.7,3.1c0,0.9,0.3,1.6,0.8,2.1C653.8,835.3,654.6,835.5,655.6,835.5z
				 M654.8,831.1c0.5-0.3,1.4-0.5,2.6-0.5l1.5-0.1v0.9c0,0.9-0.3,1.6-0.8,2.1c-0.5,0.5-1.3,0.8-2.2,0.8c-0.6,0-1-0.1-1.4-0.4
				c-0.3-0.3-0.5-0.7-0.5-1.2C654,832,654.3,831.4,654.8,831.1z"/>
			<path class="st2" d="M664.9,830.2c0-1.3,0.2-2.2,0.6-2.7c0.4-0.6,1.1-0.8,2-0.8c0.7,0,1.2,0.2,1.6,0.6c0.3,0.4,0.5,1,0.5,1.8v6.4
				h1.5v-5.5c0-1.1,0.2-1.9,0.7-2.5c0.4-0.5,1.1-0.8,2-0.8c0.7,0,1.2,0.2,1.6,0.6c0.3,0.4,0.5,1,0.5,1.8v6.4h1.5v-6.4
				c0-1.2-0.3-2.2-0.8-2.7c-0.6-0.6-1.4-0.9-2.5-0.9c-0.7,0-1.3,0.2-1.9,0.4c-0.6,0.3-1,0.7-1.3,1.2h-0.1c-0.5-1.1-1.5-1.7-3-1.7
				c-0.6,0-1.2,0.1-1.7,0.4c-0.5,0.3-0.9,0.6-1.2,1.1h-0.1l-0.2-1.3h-1.2v9.8h1.5V830.2z"/>
			<path class="st2" d="M680.4,857.5c0,2,0.9,3,2.8,3c0.2,0,0.5,0,0.8-0.1c0.3,0,0.5-0.1,0.7-0.2V859c-0.1,0-0.3,0.1-0.6,0.1
				c-0.2,0-0.5,0.1-0.8,0.1c-0.5,0-0.9-0.2-1.2-0.5c-0.3-0.3-0.4-0.8-0.4-1.4v-5.8h2.8v-1.2l-2.8,0v-2.3H681l-0.6,2.1l-1.4,0.6v0.7
				h1.4V857.5z"/>
			<path class="st2" d="M474.4,835.5c1.4,0,2.5-0.4,3.3-1.3c0.8-0.9,1.2-2.1,1.2-3.7c0-1.6-0.4-2.8-1.2-3.7
				c-0.8-0.9-1.9-1.4-3.3-1.4c-1.4,0-2.5,0.4-3.3,1.3c-0.8,0.9-1.2,2.1-1.2,3.7c0,1,0.2,1.9,0.6,2.7c0.4,0.8,0.9,1.4,1.6,1.8
				C472.8,835.3,473.5,835.5,474.4,835.5z M472.2,827.6c0.5-0.6,1.2-1,2.2-1c1,0,1.7,0.3,2.2,1c0.5,0.6,0.8,1.6,0.8,2.8
				c0,1.3-0.2,2.2-0.8,2.9c-0.5,0.7-1.2,1-2.2,1c-1,0-1.7-0.3-2.2-1c-0.5-0.7-0.8-1.6-0.8-2.9C471.5,829.2,471.7,828.2,472.2,827.6z
				"/>
			<path class="st2" d="M804.3,883.1c-0.3,0-0.6,0.1-0.8,0.3c-0.2,0.2-0.3,0.5-0.3,0.9c0,0.4,0.1,0.7,0.3,0.9
				c0.2,0.2,0.5,0.3,0.8,0.3c0.3,0,0.6-0.1,0.8-0.3c0.2-0.2,0.3-0.5,0.3-0.9c0-0.4-0.1-0.7-0.3-0.9
				C804.9,883.2,804.6,883.1,804.3,883.1z"/>
			<path class="st2" d="M815.5,825.4c-0.6,0-1.2,0.1-1.7,0.2c-0.6,0.2-1.1,0.4-1.6,0.6l0.5,1.1c1-0.5,2-0.7,2.8-0.7
				c0.7,0,1.3,0.2,1.6,0.5c0.3,0.4,0.5,0.9,0.5,1.7v0.6l-1.7,0.1c-3.2,0.1-4.7,1.1-4.7,3.1c0,0.9,0.3,1.6,0.8,2.1
				c0.6,0.5,1.3,0.7,2.3,0.7c0.7,0,1.3-0.1,1.8-0.3c0.5-0.2,1-0.6,1.5-1.3h0.1l0.3,1.4h1.1v-6.7c0-1.1-0.3-2-0.8-2.5
				C817.6,825.6,816.7,825.4,815.5,825.4z M817.5,831.4c0,0.9-0.3,1.6-0.8,2.1c-0.5,0.5-1.3,0.8-2.2,0.8c-0.6,0-1-0.1-1.4-0.4
				c-0.3-0.3-0.5-0.7-0.5-1.2c0-0.7,0.3-1.2,0.8-1.5c0.5-0.3,1.4-0.5,2.6-0.5l1.5-0.1V831.4z"/>
			<path class="st2" d="M758.1,850.3c-1.3,0-2.4,0.5-3.1,1.4c-0.8,0.9-1.2,2.2-1.2,3.8c0,1.6,0.4,2.8,1.3,3.7c0.8,0.9,2,1.3,3.4,1.3
				c0.7,0,1.2,0,1.7-0.1c0.5-0.1,1-0.3,1.5-0.5v-1.3c-1,0.4-2.1,0.7-3.1,0.7c-1,0-1.8-0.3-2.3-0.9c-0.5-0.6-0.8-1.5-0.9-2.6h6.8
				v-0.9c0-1.3-0.4-2.4-1.1-3.2C760.3,850.7,759.3,850.3,758.1,850.3z M755.4,854.4c0.1-0.9,0.4-1.6,0.8-2.1
				c0.5-0.5,1.1-0.8,1.9-0.8c0.8,0,1.4,0.2,1.8,0.7c0.4,0.5,0.6,1.2,0.6,2.1H755.4z"/>
			<rect x="802.9" y="850.5" class="st2" width="1.5" height="9.8"/>
			<path class="st2" d="M845.5,834.2c0.7-0.9,1.1-2.1,1.1-3.8c0-1.6-0.4-2.9-1.1-3.7c-0.7-0.9-1.7-1.3-3-1.3c-0.7,0-1.2,0.1-1.7,0.4
				c-0.5,0.2-1,0.6-1.3,1.2h-0.1l-0.2-1.3h-1.2v14.2h1.5v-4c0-0.5,0-1.1-0.1-1.6l0.1,0c0.4,0.5,0.8,0.9,1.3,1.1
				c0.5,0.2,1.1,0.4,1.7,0.4C843.7,835.5,844.7,835.1,845.5,834.2z M840.1,833.4c-0.5-0.6-0.7-1.6-0.7-3v-0.3c0-1.2,0.2-2.1,0.7-2.7
				c0.4-0.5,1.2-0.8,2.2-0.8c0.9,0,1.5,0.3,2,1c0.5,0.7,0.7,1.6,0.7,2.8c0,1.2-0.2,2.1-0.7,2.8c-0.5,0.7-1.1,1-2,1
				C841.3,834.3,840.5,834,840.1,833.4z"/>
			<path class="st2" d="M835.8,850.3c-1.3,0-2.4,0.5-3.1,1.4c-0.8,0.9-1.2,2.2-1.2,3.8c0,1.6,0.4,2.8,1.3,3.7c0.8,0.9,2,1.3,3.4,1.3
				c0.7,0,1.2,0,1.7-0.1c0.5-0.1,1-0.3,1.5-0.5v-1.3c-1,0.4-2.1,0.7-3.1,0.7c-1,0-1.8-0.3-2.3-0.9c-0.5-0.6-0.8-1.5-0.9-2.6h6.8
				v-0.9c0-1.3-0.4-2.4-1.1-3.2C838,850.7,837.1,850.3,835.8,850.3z M833.1,854.4c0.1-0.9,0.4-1.6,0.8-2.1c0.5-0.5,1.1-0.8,1.9-0.8
				c0.8,0,1.4,0.2,1.8,0.7c0.4,0.5,0.6,1.2,0.6,2.1H833.1z"/>
			<path class="st2" d="M803.6,848.8c0.2,0,0.4-0.1,0.6-0.2c0.2-0.2,0.3-0.4,0.3-0.7c0-0.3-0.1-0.6-0.3-0.7
				c-0.2-0.2-0.4-0.2-0.6-0.2c-0.2,0-0.5,0.1-0.6,0.2c-0.2,0.2-0.3,0.4-0.3,0.7c0,0.3,0.1,0.6,0.3,0.7
				C803.2,848.7,803.4,848.8,803.6,848.8z"/>
			<path class="st2" d="M828.6,825.4l0,0.7l0.1,0.7h-0.1c-0.7-1-1.7-1.4-3.1-1.4c-1.3,0-2.3,0.4-3,1.3c-0.7,0.9-1.1,2.2-1.1,3.8
				c0,1.6,0.4,2.9,1.1,3.7c0.7,0.9,1.7,1.3,3,1.3c1.4,0,2.4-0.5,3.1-1.5l0.1,0l0.2,1.3h1.2v-13.9h-1.5V825.4z M828.6,830.8
				c0,1.2-0.2,2.1-0.7,2.7c-0.5,0.5-1.2,0.8-2.2,0.8c-0.9,0-1.6-0.3-2-1c-0.5-0.6-0.7-1.6-0.7-2.8c0-1.2,0.2-2.2,0.7-2.9
				c0.5-0.7,1.1-1,2-1c1,0,1.8,0.3,2.2,0.9c0.5,0.6,0.7,1.6,0.7,3V830.8z"/>
			<path class="st2" d="M826.7,854.7c-0.8-0.3-1.4-0.6-1.7-0.7c-0.3-0.2-0.5-0.3-0.7-0.5c-0.1-0.2-0.2-0.4-0.2-0.7
				c0-0.4,0.2-0.7,0.5-0.9c0.4-0.2,0.9-0.3,1.6-0.3c0.8,0,1.7,0.2,2.7,0.6l0.5-1.2c-1-0.4-2-0.6-3.1-0.6c-1.1,0-2,0.2-2.7,0.7
				c-0.6,0.5-1,1.1-1,1.9c0,0.5,0.1,0.8,0.3,1.2s0.5,0.6,0.9,0.9c0.4,0.3,1,0.5,1.9,0.9c1,0.4,1.6,0.7,1.9,1c0.3,0.3,0.5,0.6,0.5,1
				c0,0.5-0.2,0.9-0.6,1.1c-0.4,0.2-1,0.4-1.8,0.4c-0.5,0-1-0.1-1.6-0.2c-0.5-0.1-1-0.3-1.5-0.6v1.4c0.7,0.4,1.7,0.6,3,0.6
				c1.2,0,2.2-0.2,2.9-0.7c0.7-0.5,1-1.2,1-2.1c0-0.7-0.2-1.2-0.6-1.6C828.7,855.5,827.9,855.1,826.7,854.7z"/>
			<path class="st2" d="M604.4,850.3c-1.4,0-2.5,0.4-3.3,1.3c-0.8,0.9-1.2,2.1-1.2,3.7c0,1,0.2,1.9,0.6,2.7c0.4,0.8,0.9,1.4,1.6,1.8
				c0.7,0.4,1.5,0.6,2.3,0.6c1.4,0,2.5-0.4,3.3-1.3c0.8-0.9,1.2-2.1,1.2-3.7c0-1.6-0.4-2.8-1.2-3.7
				C606.8,850.7,605.8,850.3,604.4,850.3z M606.6,858.2c-0.5,0.7-1.2,1-2.2,1c-1,0-1.7-0.3-2.2-1c-0.5-0.7-0.8-1.6-0.8-2.9
				c0-1.3,0.2-2.2,0.7-2.9c0.5-0.6,1.2-1,2.2-1c1,0,1.7,0.3,2.2,1c0.5,0.6,0.8,1.6,0.8,2.8C607.3,856.6,607.1,857.6,606.6,858.2z"/>
			<path class="st2" d="M765.3,832.5c0,2,0.9,3,2.8,3c0.2,0,0.5,0,0.8-0.1c0.3,0,0.5-0.1,0.7-0.2v-1.1c-0.1,0-0.3,0.1-0.6,0.1
				c-0.2,0-0.5,0.1-0.8,0.1c-0.5,0-0.9-0.2-1.2-0.5c-0.3-0.3-0.4-0.8-0.4-1.4v-5.8h2.8v-1.2h-2.8v-2.3h-0.9l-0.6,2.1l-1.4,0.6v0.7
				l1.4,0V832.5z"/>
			<path class="st2" d="M805,826.8l0.2-1.4c-0.3-0.1-0.7-0.1-1.2-0.1c-0.6,0-1.2,0.2-1.7,0.5c-0.5,0.3-0.9,0.8-1.3,1.5H801l-0.2-1.8
				h-1.2v9.8h1.5v-5.3c0-1,0.3-1.8,0.8-2.4c0.6-0.6,1.2-1,2-1C804.3,826.7,804.6,826.7,805,826.8z"/>
			<path class="st2" d="M768.1,860.5c1.4,0,2.4-0.5,3.1-1.5h0.1l0.2,1.3h1.2v-13.9h-1.5v4l0,0.7l0.1,0.7h-0.1
				c-0.7-1-1.7-1.4-3.1-1.4c-1.3,0-2.3,0.4-3,1.3c-0.7,0.9-1.1,2.1-1.1,3.8c0,1.6,0.4,2.9,1.1,3.7
				C765.9,860,766.9,860.5,768.1,860.5z M766.3,852.5c0.5-0.7,1.1-1,2-1c1,0,1.7,0.3,2.2,0.9c0.5,0.6,0.7,1.6,0.7,3v0.3
				c0,1.2-0.2,2.1-0.7,2.7c-0.5,0.5-1.2,0.8-2.2,0.8c-0.9,0-1.6-0.3-2-1c-0.5-0.6-0.7-1.6-0.7-2.8
				C765.6,854.2,765.9,853.2,766.3,852.5z"/>
			<path class="st2" d="M760.4,826.7c0.3,0,0.6,0,1,0.1c0.4,0.1,0.7,0.2,1.1,0.3l0.5-1.3c-0.3-0.1-0.6-0.3-1.1-0.4
				c-0.5-0.1-0.9-0.2-1.4-0.2c-1.5,0-2.6,0.4-3.4,1.3c-0.8,0.9-1.2,2.2-1.2,3.8c0,1.6,0.4,2.8,1.2,3.7c0.8,0.9,1.9,1.3,3.3,1.3
				c1,0,1.8-0.2,2.5-0.5v-1.3c-0.9,0.4-1.7,0.5-2.5,0.5c-1,0-1.7-0.3-2.2-1c-0.5-0.6-0.7-1.6-0.7-2.8
				C757.4,827.9,758.4,826.7,760.4,826.7z"/>
			<path class="st2" d="M771.6,880.6c0,1.3-0.2,2.2-0.7,2.7c-0.5,0.6-1.2,0.8-2.3,0.8c-0.8,0-1.3-0.2-1.7-0.6
				c-0.4-0.4-0.5-1-0.5-1.8v-6.4h-1.5v6.4c0,1.2,0.3,2.2,0.9,2.7c0.6,0.6,1.5,0.8,2.7,0.8c0.7,0,1.3-0.1,1.8-0.4
				c0.5-0.3,1-0.6,1.3-1.1h0.1l0.2,1.3h1.2v-9.8h-1.5V880.6z"/>
			<path class="st2" d="M853,850.3c-0.7,0-1.3,0.2-1.9,0.4c-0.6,0.3-1,0.7-1.3,1.2h-0.1c-0.5-1.1-1.5-1.7-3-1.7
				c-0.6,0-1.2,0.1-1.7,0.4c-0.5,0.3-0.9,0.6-1.2,1.1h-0.1l-0.2-1.3h-1.2v9.8h1.5v-5.1c0-1.3,0.2-2.2,0.6-2.7c0.4-0.6,1.1-0.8,2-0.8
				c0.7,0,1.2,0.2,1.6,0.6c0.3,0.4,0.5,1,0.5,1.8v6.4h1.5v-5.5c0-1.1,0.2-1.9,0.7-2.4c0.4-0.5,1.1-0.8,2-0.8c0.7,0,1.2,0.2,1.6,0.6
				c0.3,0.4,0.5,1,0.5,1.8v6.4h1.5v-6.4c0-1.2-0.3-2.2-0.8-2.7C855,850.6,854.1,850.3,853,850.3z"/>
			<path class="st2" d="M789.1,855.4c0-1.6-0.4-2.8-1.2-3.7c-0.8-0.9-1.9-1.4-3.3-1.4c-1.4,0-2.5,0.4-3.3,1.3
				c-0.8,0.9-1.2,2.1-1.2,3.7c0,1,0.2,1.9,0.6,2.7c0.4,0.8,0.9,1.4,1.6,1.8c0.7,0.4,1.5,0.6,2.3,0.6c1.4,0,2.5-0.4,3.3-1.3
				C788.7,858.2,789.1,857,789.1,855.4z M786.8,858.2c-0.5,0.7-1.2,1-2.2,1c-1,0-1.7-0.3-2.2-1c-0.5-0.7-0.7-1.6-0.7-2.9
				c0-1.3,0.2-2.2,0.7-2.9c0.5-0.6,1.2-1,2.2-1c1,0,1.7,0.3,2.2,1c0.5,0.6,0.8,1.6,0.8,2.8C787.5,856.6,787.3,857.6,786.8,858.2z"/>
			<path class="st2" d="M779.9,875.2c-0.6,0-1.2,0.1-1.7,0.2c-0.6,0.2-1.1,0.4-1.6,0.6l0.5,1.1c1-0.5,1.9-0.7,2.8-0.7
				c0.7,0,1.3,0.2,1.6,0.5c0.3,0.4,0.5,0.9,0.5,1.7v0.6l-1.7,0.1c-3.2,0.1-4.7,1.1-4.7,3.1c0,0.9,0.3,1.6,0.8,2.1
				c0.6,0.5,1.3,0.7,2.3,0.7c0.7,0,1.3-0.1,1.8-0.3c0.5-0.2,1-0.6,1.5-1.3h0.1l0.3,1.4h1.1v-6.7c0-1.1-0.3-2-0.8-2.5
				C781.9,875.5,781.1,875.2,779.9,875.2z M781.9,881.3c0,0.9-0.3,1.6-0.8,2.1c-0.5,0.5-1.2,0.8-2.2,0.8c-0.6,0-1-0.1-1.4-0.4
				c-0.3-0.3-0.5-0.7-0.5-1.2c0-0.7,0.3-1.2,0.8-1.5c0.5-0.3,1.4-0.5,2.6-0.5l1.5-0.1V881.3z"/>
			<path class="st2" d="M811.5,850.3c-1.4,0-2.5,0.4-3.3,1.3c-0.8,0.9-1.2,2.1-1.2,3.7c0,1,0.2,1.9,0.6,2.7c0.4,0.8,0.9,1.4,1.6,1.8
				c0.7,0.4,1.5,0.6,2.3,0.6c1.4,0,2.5-0.4,3.3-1.3c0.8-0.9,1.2-2.1,1.2-3.7c0-1.6-0.4-2.8-1.2-3.7
				C814,850.7,812.9,850.3,811.5,850.3z M813.7,858.2c-0.5,0.7-1.2,1-2.2,1c-1,0-1.7-0.3-2.2-1c-0.5-0.7-0.7-1.6-0.7-2.9
				c0-1.3,0.2-2.2,0.7-2.9c0.5-0.6,1.2-1,2.2-1c1,0,1.7,0.3,2.2,1c0.5,0.6,0.7,1.6,0.7,2.8C814.5,856.6,814.2,857.6,813.7,858.2z"/>
			<path class="st2" d="M925.9,834.1c-0.1,0-0.3,0.1-0.6,0.1c-0.2,0-0.5,0.1-0.8,0.1c-0.5,0-0.9-0.2-1.2-0.5
				c-0.3-0.3-0.4-0.8-0.4-1.4v-5.8h2.8v-1.2H923v-2.3h-0.9l-0.6,2.1l-1.4,0.6v0.7h1.4v5.8c0,2,0.9,3,2.8,3c0.3,0,0.5,0,0.8-0.1
				c0.3,0,0.5-0.1,0.7-0.2L925.9,834.1z"/>
			<path class="st2" d="M928.7,833.2c-0.3,0-0.6,0.1-0.8,0.3c-0.2,0.2-0.3,0.5-0.3,0.9c0,0.4,0.1,0.7,0.3,0.9
				c0.2,0.2,0.5,0.3,0.8,0.3c0.3,0,0.6-0.1,0.8-0.3c0.2-0.2,0.3-0.5,0.3-0.9c0-0.4-0.1-0.7-0.3-0.9
				C929.3,833.3,929.1,833.2,928.7,833.2z"/>
			<rect x="925.7" y="846.3" class="st2" width="1.5" height="13.9"/>
			<path class="st2" d="M918.6,850.3c-1.4,0-2.5,0.4-3.3,1.3c-0.8,0.9-1.2,2.1-1.2,3.7c0,1,0.2,1.9,0.6,2.7c0.4,0.8,0.9,1.4,1.6,1.8
				c0.7,0.4,1.5,0.6,2.3,0.6c1.4,0,2.5-0.4,3.3-1.3c0.8-0.9,1.2-2.1,1.2-3.7c0-1.6-0.4-2.8-1.2-3.7
				C921.1,850.7,920,850.3,918.6,850.3z M920.8,858.2c-0.5,0.7-1.2,1-2.2,1c-1,0-1.7-0.3-2.2-1c-0.5-0.7-0.8-1.6-0.8-2.9
				c0-1.3,0.2-2.2,0.7-2.9c0.5-0.6,1.2-1,2.2-1c1,0,1.7,0.3,2.2,1c0.5,0.6,0.8,1.6,0.8,2.8C921.6,856.6,921.3,857.6,920.8,858.2z"/>
			<path class="st2" d="M935.8,846.8c-0.2,0-0.5,0.1-0.6,0.2c-0.2,0.2-0.3,0.4-0.3,0.7c0,0.3,0.1,0.6,0.3,0.7
				c0.2,0.2,0.4,0.2,0.6,0.2c0.2,0,0.4-0.1,0.6-0.2c0.2-0.2,0.3-0.4,0.3-0.7c0-0.3-0.1-0.6-0.3-0.7
				C936.2,846.9,936,846.8,935.8,846.8z"/>
			<rect x="912.2" y="821.4" class="st2" width="1.5" height="13.9"/>
			<path class="st2" d="M943,854.7c-0.8-0.3-1.4-0.6-1.7-0.7c-0.3-0.2-0.5-0.3-0.7-0.5c-0.1-0.2-0.2-0.4-0.2-0.7
				c0-0.4,0.2-0.7,0.5-0.9c0.4-0.2,0.9-0.3,1.6-0.3c0.8,0,1.7,0.2,2.7,0.6l0.5-1.2c-1-0.4-2-0.6-3.1-0.6c-1.1,0-2,0.2-2.7,0.7
				c-0.7,0.5-1,1.1-1,1.9c0,0.5,0.1,0.8,0.3,1.2c0.2,0.3,0.5,0.6,0.9,0.9c0.4,0.3,1,0.5,1.9,0.9c1,0.4,1.6,0.7,1.9,1
				c0.3,0.3,0.5,0.6,0.5,1c0,0.5-0.2,0.9-0.6,1.1c-0.4,0.2-1,0.4-1.8,0.4c-0.5,0-1-0.1-1.6-0.2c-0.5-0.1-1-0.3-1.5-0.6v1.4
				c0.7,0.4,1.7,0.6,3,0.6c1.2,0,2.2-0.2,2.9-0.7c0.7-0.5,1-1.2,1-2.1c0-0.7-0.2-1.2-0.6-1.6C944.9,855.5,944.1,855.1,943,854.7z"/>
			<rect x="935" y="850.5" class="st2" width="1.5" height="9.8"/>
			<rect x="930.4" y="846.3" class="st2" width="1.5" height="13.9"/>
			<path class="st2" d="M883.7,850.8c-0.5,0.3-0.9,0.8-1.3,1.5h-0.1l-0.2-1.8h-1.2v9.8h1.5V855c0-1,0.3-1.8,0.8-2.4
				c0.6-0.6,1.2-1,2-1c0.3,0,0.7,0,1.1,0.1l0.2-1.4c-0.3-0.1-0.7-0.1-1.2-0.1C884.8,850.3,884.2,850.5,883.7,850.8z"/>
			<path class="st2" d="M908.3,850.3c-0.7,0-1.3,0.2-1.9,0.4c-0.6,0.3-1,0.7-1.3,1.2h-0.1c-0.5-1.1-1.5-1.7-3-1.7
				c-0.6,0-1.2,0.1-1.7,0.4c-0.5,0.3-0.9,0.6-1.2,1.1h-0.1l-0.2-1.3h-1.2v9.8h1.5v-5.1c0-1.3,0.2-2.2,0.6-2.7c0.4-0.6,1.1-0.8,2-0.8
				c0.7,0,1.2,0.2,1.6,0.6c0.3,0.4,0.5,1,0.5,1.8v6.4h1.5v-5.5c0-1.1,0.2-1.9,0.7-2.4c0.4-0.5,1.1-0.8,2-0.8c0.7,0,1.2,0.2,1.6,0.6
				c0.3,0.4,0.5,1,0.5,1.8v6.4h1.5v-6.4c0-1.2-0.3-2.2-0.8-2.7C910.2,850.6,909.4,850.3,908.3,850.3z"/>
			<path class="st2" d="M882.6,829v6.3h1.5v-6.4c0-1.2-0.3-2.2-0.9-2.7c-0.6-0.6-1.5-0.9-2.7-0.9c-0.7,0-1.3,0.1-1.8,0.4
				c-0.5,0.3-1,0.6-1.3,1.1h-0.1l-0.2-1.3h-1.2v9.8h1.5v-5.1c0-1.3,0.2-2.2,0.7-2.8c0.5-0.5,1.2-0.8,2.3-0.8c0.8,0,1.3,0.2,1.7,0.6
				C882.4,827.6,882.6,828.2,882.6,829z"/>
			<path class="st2" d="M866.5,826.7c0.3,0,0.6,0,1,0.1c0.4,0.1,0.7,0.2,1.1,0.3l0.5-1.3c-0.3-0.1-0.6-0.3-1.1-0.4
				c-0.5-0.1-0.9-0.2-1.4-0.2c-1.5,0-2.6,0.4-3.4,1.3c-0.8,0.9-1.2,2.2-1.2,3.8c0,1.6,0.4,2.8,1.2,3.7c0.8,0.9,1.9,1.3,3.3,1.3
				c1,0,1.8-0.2,2.5-0.5v-1.3c-0.9,0.4-1.7,0.5-2.5,0.5c-1,0-1.7-0.3-2.2-1c-0.5-0.6-0.7-1.6-0.7-2.8
				C863.5,827.9,864.5,826.7,866.5,826.7z"/>
			<path class="st2" d="M864,850.3c-0.7,0-1.2,0.1-1.7,0.4c-0.5,0.2-1,0.6-1.3,1.2h-0.1l-0.2-1.3h-1.2v14.2h1.5v-4
				c0-0.5,0-1.1-0.1-1.6h0.1c0.4,0.5,0.8,0.9,1.3,1.1c0.5,0.2,1.1,0.4,1.8,0.4c1.3,0,2.3-0.4,3-1.3c0.7-0.9,1.1-2.1,1.1-3.8
				c0-1.6-0.4-2.8-1.1-3.7C866.3,850.7,865.3,850.3,864,850.3z M865.8,858.2c-0.5,0.7-1.1,1-2,1c-1,0-1.7-0.3-2.2-0.9
				c-0.5-0.6-0.7-1.6-0.7-3V855c0-1.2,0.2-2.1,0.7-2.6c0.4-0.6,1.2-0.8,2.2-0.8c0.9,0,1.5,0.3,2,1c0.5,0.7,0.7,1.6,0.7,2.8
				C866.5,856.5,866.3,857.5,865.8,858.2z"/>
			<path class="st2" d="M874.4,850.3c-1.3,0-2.4,0.5-3.1,1.4c-0.8,0.9-1.2,2.2-1.2,3.8c0,1.6,0.4,2.8,1.3,3.7c0.8,0.9,2,1.3,3.4,1.3
				c0.7,0,1.2,0,1.7-0.1c0.5-0.1,1-0.3,1.5-0.5v-1.3c-1,0.4-2.1,0.7-3.1,0.7c-1,0-1.8-0.3-2.3-0.9c-0.5-0.6-0.8-1.5-0.9-2.6h6.8
				v-0.9c0-1.3-0.4-2.4-1.1-3.2C876.6,850.7,875.6,850.3,874.4,850.3z M871.7,854.4c0.1-0.9,0.4-1.6,0.8-2.1
				c0.5-0.5,1.1-0.8,1.9-0.8c0.8,0,1.4,0.2,1.8,0.7c0.4,0.5,0.6,1.2,0.6,2.1H871.7z"/>
			<path class="st2" d="M890.3,825.3c-1.2,0-2.1,0.3-2.7,0.9c-0.6,0.6-1,1.4-1,2.5c0,0.6,0.2,1.2,0.5,1.7c0.3,0.5,0.7,0.9,1.2,1.1
				c-0.4,0.2-0.7,0.5-0.9,0.8c-0.2,0.3-0.3,0.6-0.3,0.9c0,0.3,0.1,0.6,0.3,0.8c0.2,0.2,0.4,0.4,0.6,0.5c-0.7,0.2-1.2,0.4-1.6,0.9
				c-0.4,0.4-0.6,0.9-0.6,1.5c0,0.9,0.3,1.5,1,2c0.7,0.5,1.7,0.7,3,0.7c1.7,0,2.9-0.3,3.8-0.9c0.9-0.6,1.3-1.4,1.3-2.5
				c0-0.9-0.3-1.5-0.9-1.9c-0.6-0.5-1.4-0.7-2.4-0.7h-1.7c-0.5,0-0.9-0.1-1.1-0.2c-0.2-0.1-0.3-0.3-0.3-0.6c0-0.5,0.3-0.9,0.9-1.3
				c0.3,0,0.5,0.1,0.8,0.1c1.1,0,2-0.3,2.7-0.9c0.7-0.6,1-1.3,1-2.3c0-0.4-0.1-0.8-0.2-1.1c-0.1-0.3-0.3-0.6-0.4-0.8l1.8-0.2l0-0.9
				h-3.4C891.3,825.4,890.8,825.3,890.3,825.3z M889.4,835.1h1.8c0.9,0,1.5,0.1,1.8,0.3c0.3,0.2,0.5,0.6,0.5,1.1
				c0,0.6-0.3,1.1-0.9,1.5c-0.6,0.4-1.5,0.6-2.8,0.6c-0.8,0-1.5-0.1-1.9-0.4c-0.4-0.3-0.7-0.7-0.7-1.2c0-0.6,0.2-1.1,0.6-1.4
				C888.2,835.3,888.8,835.1,889.4,835.1z M892.5,828.6c0,1.4-0.7,2.1-2.2,2.1c-0.7,0-1.2-0.2-1.6-0.5c-0.4-0.4-0.6-0.9-0.6-1.6
				c0-0.7,0.2-1.3,0.6-1.7c0.4-0.4,0.9-0.6,1.6-0.6C891.7,826.4,892.5,827.2,892.5,828.6z"/>
			<path class="st2" d="M888.3,858.1c-0.1,0.5-0.2,1.3-0.4,2.2c-0.2,0.9-0.4,1.7-0.5,2.3h1.1c0.3-0.7,0.6-1.4,0.9-2.2
				c0.3-0.8,0.5-1.5,0.7-2.1l-0.1-0.2H888.3z"/>
			<path class="st2" d="M860.1,832.7c0-0.7-0.2-1.2-0.6-1.6c-0.4-0.4-1.2-0.9-2.4-1.3c-0.8-0.3-1.4-0.6-1.7-0.7
				c-0.3-0.2-0.5-0.3-0.6-0.5c-0.1-0.2-0.2-0.4-0.2-0.7c0-0.4,0.2-0.7,0.5-0.9c0.4-0.2,0.9-0.3,1.6-0.3c0.8,0,1.7,0.2,2.7,0.6
				l0.5-1.2c-1-0.4-2-0.6-3.1-0.6c-1.1,0-2,0.2-2.7,0.7c-0.7,0.5-1,1.1-1,1.9c0,0.5,0.1,0.8,0.3,1.2c0.2,0.3,0.5,0.6,0.9,0.9
				c0.4,0.3,1,0.5,1.9,0.9c1,0.4,1.6,0.7,1.9,1c0.3,0.3,0.5,0.6,0.5,1c0,0.5-0.2,0.9-0.6,1.1c-0.4,0.2-1,0.4-1.8,0.4
				c-0.5,0-1-0.1-1.6-0.2c-0.5-0.1-1-0.3-1.5-0.6v1.4c0.7,0.4,1.7,0.6,3,0.6c1.2,0,2.2-0.2,2.9-0.7
				C859.7,834.3,860.1,833.6,860.1,832.7z"/>
			<path class="st2" d="M797.1,875.2c-0.7,0-1.3,0.2-1.9,0.4c-0.6,0.3-1,0.7-1.3,1.2h-0.1c-0.5-1.1-1.5-1.7-3-1.7
				c-0.6,0-1.2,0.1-1.7,0.4c-0.5,0.3-0.9,0.6-1.2,1.1h-0.1l-0.2-1.3h-1.2v9.8h1.5v-5.1c0-1.3,0.2-2.2,0.6-2.7c0.4-0.6,1.1-0.8,2-0.8
				c0.7,0,1.2,0.2,1.6,0.6c0.3,0.4,0.5,1,0.5,1.8v6.4h1.5v-5.5c0-1.1,0.2-1.9,0.7-2.4c0.4-0.5,1.1-0.8,2.1-0.8
				c0.7,0,1.2,0.2,1.6,0.6c0.3,0.4,0.5,1,0.5,1.8v6.4h1.5v-6.4c0-1.2-0.3-2.2-0.8-2.7C799,875.5,798.2,875.2,797.1,875.2z"/>
			<path class="st2" d="M637.3,876.1c-0.6-0.6-1.5-0.9-2.7-0.9c-0.7,0-1.3,0.1-1.8,0.4c-0.5,0.3-1,0.6-1.3,1.1h-0.1l-0.2-1.3H630
				v9.8h1.5v-5.1c0-1.3,0.2-2.2,0.7-2.7c0.5-0.6,1.2-0.8,2.3-0.8c0.8,0,1.3,0.2,1.7,0.6c0.4,0.4,0.5,1,0.5,1.8v6.3h1.5l0-6.4
				C638.2,877.6,637.9,876.7,637.3,876.1z"/>
			<path class="st2" d="M634.3,860.5c0.7,0,1.2,0,1.7-0.1c0.5-0.1,1-0.3,1.5-0.5v-1.3c-1,0.4-2.1,0.7-3.1,0.7c-1,0-1.8-0.3-2.3-0.9
				c-0.6-0.6-0.8-1.5-0.9-2.6l6.8,0v-0.9c0-1.3-0.4-2.4-1.1-3.2c-0.7-0.8-1.7-1.2-2.9-1.2c-1.3,0-2.4,0.5-3.1,1.4
				c-0.8,0.9-1.2,2.2-1.2,3.8c0,1.6,0.4,2.8,1.3,3.7C631.7,860,632.9,860.5,634.3,860.5z M632,852.3c0.5-0.5,1.1-0.8,1.9-0.8
				c0.8,0,1.4,0.2,1.8,0.7c0.4,0.5,0.6,1.2,0.6,2.1h-5.1C631.3,853.5,631.6,852.8,632,852.3z"/>
			<path class="st2" d="M623.5,850.3c-0.7,0-1.2,0.1-1.7,0.4c-0.5,0.2-0.9,0.6-1.3,1.2h-0.1l-0.2-1.3H619v14.2h1.5v-4
				c0-0.5,0-1.1-0.1-1.6h0.1c0.4,0.5,0.8,0.9,1.3,1.1c0.5,0.2,1.1,0.4,1.7,0.4c1.3,0,2.3-0.4,3-1.3c0.7-0.9,1.1-2.1,1.1-3.8
				c0-1.6-0.4-2.8-1.1-3.7C625.8,850.7,624.8,850.3,623.5,850.3z M625.3,858.2c-0.5,0.7-1.1,1-2,1c-1,0-1.8-0.3-2.2-0.9
				c-0.5-0.6-0.7-1.6-0.7-3V855c0-1.2,0.2-2.1,0.7-2.6c0.4-0.6,1.2-0.8,2.2-0.8c0.9,0,1.5,0.3,2,1c0.5,0.7,0.7,1.6,0.7,2.8
				C626,856.5,625.8,857.5,625.3,858.2z"/>
			<path class="st2" d="M632.9,833.9c-0.4,0.2-1,0.4-1.8,0.4c-0.5,0-1-0.1-1.6-0.2c-0.5-0.1-1-0.3-1.5-0.6v1.4
				c0.7,0.4,1.7,0.6,3,0.6c1.2,0,2.2-0.2,2.9-0.7c0.7-0.5,1-1.2,1-2.1c0-0.7-0.2-1.2-0.6-1.6c-0.4-0.4-1.2-0.9-2.4-1.3
				c-0.8-0.3-1.4-0.6-1.7-0.7c-0.3-0.2-0.5-0.3-0.6-0.5c-0.1-0.2-0.2-0.4-0.2-0.7c0-0.4,0.2-0.7,0.5-0.9c0.4-0.2,0.9-0.3,1.6-0.3
				c0.8,0,1.7,0.2,2.7,0.6l0.5-1.2c-1-0.4-2-0.6-3.1-0.6c-1.1,0-2,0.2-2.7,0.7c-0.7,0.5-1,1.1-1,1.9c0,0.5,0.1,0.8,0.3,1.2
				c0.2,0.3,0.5,0.6,0.9,0.9c0.4,0.3,1,0.5,1.9,0.9c1,0.4,1.6,0.7,1.9,1c0.3,0.3,0.5,0.6,0.5,1C633.5,833.3,633.3,833.7,632.9,833.9
				z"/>
			<rect x="637.3" y="825.5" class="st2" width="1.5" height="9.8"/>
			<path class="st2" d="M638.1,821.9c-0.3,0-0.5,0.1-0.6,0.2c-0.2,0.2-0.3,0.4-0.3,0.7c0,0.3,0.1,0.6,0.3,0.7
				c0.2,0.2,0.4,0.2,0.6,0.2c0.2,0,0.4-0.1,0.6-0.2c0.2-0.2,0.3-0.4,0.3-0.7c0-0.3-0.1-0.6-0.3-0.7
				C638.5,822,638.3,821.9,638.1,821.9z"/>
			<path class="st2" d="M643.2,850.8c-0.5,0.3-1,0.8-1.3,1.5h-0.1l-0.2-1.8h-1.2v9.8h1.5V855c0-1,0.3-1.8,0.8-2.4c0.6-0.6,1.2-1,2-1
				c0.3,0,0.7,0,1.1,0.1l0.2-1.4c-0.3-0.1-0.7-0.1-1.2-0.1C644.3,850.3,643.7,850.5,643.2,850.8z"/>
			<path class="st2" d="M645.9,834.2c-0.2,0-0.5,0.1-0.8,0.1c-0.5,0-0.9-0.2-1.2-0.5c-0.3-0.3-0.4-0.8-0.4-1.4v-5.8h2.8v-1.2h-2.8
				l0-2.3h-0.9l-0.6,2.1l-1.4,0.6v0.7h1.4v5.8c0,2,0.9,3,2.8,3c0.3,0,0.5,0,0.8-0.1c0.3,0,0.6-0.1,0.7-0.2l0-1.1
				C646.3,834.1,646.1,834.2,645.9,834.2z"/>
			<path class="st2" d="M641.2,883.1c-0.1,0.5-0.2,1.3-0.4,2.2c-0.2,0.9-0.4,1.7-0.5,2.3h1.1c0.3-0.7,0.6-1.4,0.9-2.2
				c0.3-0.8,0.5-1.5,0.7-2.1l-0.1-0.2H641.2z"/>
			<path class="st2" d="M610.3,871.8c-0.3,0-0.5,0.1-0.6,0.2c-0.2,0.2-0.3,0.4-0.3,0.7c0,0.3,0.1,0.6,0.3,0.7
				c0.2,0.2,0.4,0.2,0.6,0.2c0.2,0,0.4-0.1,0.6-0.2c0.2-0.2,0.3-0.4,0.3-0.7c0-0.3-0.1-0.6-0.3-0.7
				C610.7,871.8,610.5,871.8,610.3,871.8z"/>
			<path class="st2" d="M626.1,871.8c-0.3,0-0.5,0.1-0.6,0.2c-0.2,0.2-0.3,0.4-0.3,0.7c0,0.3,0.1,0.6,0.3,0.7
				c0.2,0.2,0.4,0.2,0.6,0.2c0.2,0,0.4-0.1,0.6-0.2c0.2-0.2,0.3-0.4,0.3-0.7c0-0.3-0.1-0.6-0.3-0.7
				C626.6,871.8,626.4,871.8,626.1,871.8z"/>
			<path class="st2" d="M654.3,875.2c-1.3,0-2.4,0.5-3.1,1.4c-0.8,0.9-1.2,2.2-1.2,3.8c0,1.6,0.4,2.8,1.3,3.7c0.8,0.9,2,1.3,3.4,1.3
				c0.7,0,1.2,0,1.7-0.1c0.5-0.1,1-0.3,1.5-0.5v-1.3c-1,0.4-2.1,0.7-3.1,0.7c-1,0-1.8-0.3-2.3-0.9c-0.5-0.6-0.8-1.5-0.9-2.6h6.8
				v-0.9c0-1.3-0.4-2.4-1.1-3.2C656.5,875.6,655.5,875.2,654.3,875.2z M651.5,879.4c0.1-0.9,0.4-1.6,0.8-2.1
				c0.5-0.5,1.1-0.8,1.9-0.8c0.8,0,1.4,0.2,1.8,0.7c0.4,0.5,0.6,1.2,0.6,2.1H651.5z"/>
			<path class="st2" d="M613,855c0-1,0.3-1.8,0.8-2.4c0.6-0.6,1.2-1,2-1c0.3,0,0.7,0,1.1,0.1l0.2-1.4c-0.3-0.1-0.7-0.1-1.2-0.1
				c-0.6,0-1.2,0.2-1.7,0.5c-0.5,0.3-0.9,0.8-1.3,1.5h-0.1l-0.2-1.8h-1.2v9.8h1.5V855z"/>
			<path class="st2" d="M613.8,830.4c0-1.6-0.4-2.8-1.2-3.7c-0.8-0.9-1.9-1.4-3.3-1.4c-1.4,0-2.5,0.4-3.3,1.3
				c-0.8,0.9-1.2,2.1-1.2,3.7c0,1,0.2,1.9,0.6,2.7c0.4,0.8,0.9,1.4,1.6,1.8c0.7,0.4,1.5,0.6,2.3,0.6c1.4,0,2.5-0.4,3.3-1.3
				C613.4,833.3,613.8,832,613.8,830.4z M611.5,833.3c-0.5,0.7-1.2,1-2.2,1c-1,0-1.7-0.3-2.2-1c-0.5-0.7-0.7-1.6-0.7-2.9
				c0-1.3,0.2-2.2,0.7-2.9c0.5-0.6,1.2-1,2.2-1c1,0,1.7,0.3,2.2,1c0.5,0.6,0.8,1.6,0.8,2.8C612.2,831.7,612,832.6,611.5,833.3z"/>
			<rect x="609.5" y="875.4" class="st2" width="1.5" height="9.8"/>
			<path class="st2" d="M617.3,884.2c-0.5,0-0.9-0.2-1.2-0.5c-0.3-0.3-0.4-0.8-0.4-1.4v-5.8h2.8v-1.2h-2.8v-2.3h-0.9l-0.6,2.1
				l-1.4,0.6v0.7h1.4v5.8c0,2,0.9,3,2.8,3c0.2,0,0.5,0,0.8-0.1c0.3-0.1,0.6-0.1,0.7-0.2V884c-0.1,0-0.3,0.1-0.6,0.1
				C617.8,884.2,617.6,884.2,617.3,884.2z"/>
			<rect x="625.4" y="875.4" class="st2" width="1.5" height="9.8"/>
			<path class="st2" d="M621.8,826.8l0.2-1.4c-0.3-0.1-0.7-0.1-1.2-0.1c-0.6,0-1.2,0.2-1.7,0.5c-0.5,0.3-0.9,0.8-1.3,1.5h-0.1
				l-0.2-1.8h-1.2v9.8h1.5v-5.3c0-1,0.3-1.8,0.8-2.4c0.6-0.6,1.2-1,2-1C621,826.7,621.4,826.7,621.8,826.8z"/>
			<path class="st2" d="M707.6,875.2c-0.7,0-1.3,0.1-1.8,0.4c-0.5,0.3-1,0.6-1.3,1.1h-0.1l-0.2-1.3H703v9.8h1.5v-5.1
				c0-1.3,0.2-2.2,0.7-2.7c0.5-0.6,1.2-0.8,2.3-0.8c0.8,0,1.3,0.2,1.7,0.6c0.4,0.4,0.5,1,0.5,1.8v6.3h1.5v-6.4
				c0-1.2-0.3-2.2-0.9-2.7C709.7,875.5,708.8,875.2,707.6,875.2z"/>
			<rect x="721.4" y="846.3" class="st2" width="1.5" height="13.9"/>
			<path class="st2" d="M727.3,880.6c0,1.3-0.2,2.2-0.7,2.7c-0.5,0.6-1.2,0.8-2.3,0.8c-0.8,0-1.3-0.2-1.7-0.6
				c-0.4-0.4-0.5-1-0.5-1.8v-6.4h-1.5v6.4c0,1.2,0.3,2.2,0.9,2.7c0.6,0.6,1.5,0.8,2.7,0.8c0.7,0,1.3-0.1,1.8-0.4
				c0.5-0.3,1-0.6,1.3-1.1h0.1l0.2,1.3h1.2v-9.8h-1.5V880.6z"/>
			<path class="st2" d="M734.9,860.1c0.5-0.2,1-0.6,1.5-1.3h0.1l0.3,1.4h1.1v-6.7c0-1.1-0.3-2-0.9-2.5c-0.6-0.5-1.4-0.8-2.6-0.8
				c-0.6,0-1.2,0.1-1.7,0.2c-0.6,0.2-1.1,0.4-1.6,0.6l0.5,1.1c1-0.5,2-0.8,2.8-0.8c0.7,0,1.3,0.2,1.6,0.5c0.3,0.4,0.5,0.9,0.5,1.7
				v0.6l-1.7,0.1c-3.2,0.1-4.7,1.1-4.7,3.1c0,0.9,0.3,1.6,0.8,2.1c0.6,0.5,1.3,0.7,2.3,0.7C733.8,860.5,734.4,860.3,734.9,860.1z
				 M731.5,857.6c0-0.7,0.3-1.2,0.8-1.5c0.5-0.3,1.4-0.5,2.5-0.5l1.5-0.1v0.9c0,0.9-0.3,1.6-0.8,2.1c-0.5,0.5-1.3,0.8-2.2,0.8
				c-0.6,0-1-0.1-1.4-0.4C731.7,858.5,731.5,858.1,731.5,857.6z"/>
			<path class="st2" d="M723.6,830.4c0-1.6-0.4-2.8-1.2-3.7c-0.8-0.9-1.9-1.4-3.3-1.4c-1.4,0-2.5,0.4-3.3,1.3
				c-0.8,0.9-1.2,2.1-1.2,3.7c0,1,0.2,1.9,0.6,2.7c0.4,0.8,0.9,1.4,1.6,1.8c0.7,0.4,1.5,0.6,2.3,0.6c1.4,0,2.5-0.4,3.3-1.3
				C723.2,833.3,723.6,832,723.6,830.4z M721.3,833.3c-0.5,0.7-1.2,1-2.2,1c-1,0-1.7-0.3-2.2-1c-0.5-0.7-0.8-1.6-0.8-2.9
				c0-1.3,0.2-2.2,0.7-2.9c0.5-0.6,1.2-1,2.2-1c1,0,1.7,0.3,2.2,1c0.5,0.6,0.8,1.6,0.8,2.8C722,831.7,721.8,832.6,721.3,833.3z"/>
			<path class="st2" d="M753.5,833.5c-1,0.4-2.1,0.7-3.1,0.7c-1,0-1.8-0.3-2.3-0.9c-0.5-0.6-0.8-1.5-0.9-2.6h6.8v-0.9
				c0-1.3-0.4-2.4-1.1-3.2c-0.7-0.8-1.7-1.2-2.9-1.2c-1.3,0-2.4,0.5-3.1,1.4c-0.8,0.9-1.2,2.2-1.2,3.8c0,1.6,0.4,2.8,1.3,3.7
				c0.8,0.9,2,1.3,3.4,1.3c0.7,0,1.2,0,1.7-0.1c0.5-0.1,1-0.3,1.5-0.5V833.5z M748,827.4c0.5-0.5,1.1-0.8,1.9-0.8
				c0.8,0,1.4,0.2,1.8,0.7c0.4,0.5,0.6,1.2,0.6,2.1h-5.1C747.3,828.6,747.6,827.9,748,827.4z"/>
			<path class="st2" d="M742.6,875.2c-0.7,0-1.3,0.2-1.9,0.4c-0.5,0.3-1,0.7-1.3,1.2h-0.1c-0.5-1.1-1.5-1.7-3-1.7
				c-0.6,0-1.2,0.1-1.7,0.4c-0.5,0.3-0.9,0.6-1.2,1.1h-0.1l-0.2-1.3H732v9.8h1.5l0-5.1c0-1.3,0.2-2.2,0.7-2.7c0.4-0.6,1.1-0.8,2-0.8
				c0.7,0,1.2,0.2,1.6,0.6c0.3,0.4,0.5,1,0.5,1.8v6.4h1.5v-5.5c0-1.1,0.2-1.9,0.7-2.4c0.4-0.5,1.1-0.8,2.1-0.8
				c0.7,0,1.2,0.2,1.5,0.6c0.3,0.4,0.5,1,0.5,1.8v6.4h1.5v-6.4c0-1.2-0.3-2.2-0.8-2.7C744.6,875.5,743.7,875.2,742.6,875.2z"/>
			<path class="st2" d="M717.4,884.2c-0.5,0-0.9-0.2-1.2-0.5c-0.3-0.3-0.4-0.8-0.4-1.4v-5.8h2.8v-1.2h-2.8l0-2.3H715l-0.6,2.1
				l-1.4,0.6l0,0.7h1.4v5.8c0,2,0.9,3,2.8,3c0.2,0,0.5,0,0.8-0.1c0.3-0.1,0.5-0.1,0.7-0.2V884c-0.1,0-0.3,0.1-0.6,0.1
				C717.9,884.2,717.7,884.2,717.4,884.2z"/>
			<path class="st2" d="M749,854.7c-0.8-0.3-1.4-0.6-1.7-0.7c-0.3-0.2-0.5-0.3-0.6-0.5c-0.1-0.2-0.2-0.4-0.2-0.7
				c0-0.4,0.2-0.7,0.5-0.9c0.4-0.2,0.9-0.3,1.6-0.3c0.8,0,1.7,0.2,2.7,0.6l0.5-1.2c-1-0.4-2-0.6-3.1-0.6c-1.1,0-2,0.2-2.7,0.7
				c-0.7,0.5-1,1.1-1,1.9c0,0.5,0.1,0.8,0.3,1.2c0.2,0.3,0.5,0.6,0.9,0.9c0.4,0.3,1,0.5,1.9,0.9c1,0.4,1.6,0.7,1.9,1
				c0.3,0.3,0.5,0.6,0.5,1c0,0.5-0.2,0.9-0.6,1.1c-0.4,0.2-1,0.4-1.8,0.4c-0.5,0-1-0.1-1.6-0.2c-0.5-0.1-1-0.3-1.5-0.6v1.4
				c0.7,0.4,1.7,0.6,3,0.6c1.2,0,2.2-0.2,2.9-0.7c0.7-0.5,1-1.2,1-2.1c0-0.7-0.2-1.2-0.6-1.6C750.9,855.5,750.1,855.1,749,854.7z"/>
			<path class="st2" d="M760.4,876.7L760.4,876.7c-0.8-1-1.8-1.5-3.2-1.5c-1.3,0-2.3,0.5-3,1.4c-0.7,0.9-1.1,2.2-1.1,3.8
				c0,1.6,0.4,2.8,1.1,3.7c0.7,0.9,1.7,1.3,3,1.3c1.4,0,2.4-0.5,3.1-1.5h0.1c-0.1,0.4-0.1,0.9-0.1,1.5v4.2h1.5v-14.2h-1.2
				L760.4,876.7z M760.3,880.7c0,1.3-0.3,2.2-0.7,2.7c-0.5,0.5-1.2,0.8-2.2,0.8c-0.9,0-1.6-0.3-2-1c-0.5-0.7-0.7-1.6-0.7-2.8
				c0-1.2,0.2-2.2,0.7-2.9c0.5-0.7,1.1-1,2-1c1,0,1.7,0.3,2.2,0.9c0.5,0.6,0.7,1.6,0.7,3V880.7z"/>
			<path class="st2" d="M667.3,851.6c0.3,0,0.7,0,1.1,0.1l0.2-1.4c-0.3-0.1-0.7-0.1-1.2-0.1c-0.6,0-1.2,0.2-1.7,0.5
				c-0.5,0.3-1,0.8-1.3,1.5h-0.1l-0.2-1.8H663v9.8h1.5V855c0-1,0.3-1.8,0.8-2.4C665.9,852,666.5,851.6,667.3,851.6z"/>
			<path class="st2" d="M669.2,875.2c-1.3,0-2.4,0.5-3.1,1.4c-0.8,0.9-1.2,2.2-1.2,3.8c0,1.6,0.4,2.8,1.3,3.7c0.8,0.9,2,1.3,3.4,1.3
				c0.7,0,1.2,0,1.7-0.1c0.5-0.1,1-0.3,1.5-0.5v-1.3c-1,0.4-2.1,0.7-3.1,0.7c-1,0-1.8-0.3-2.3-0.9c-0.5-0.6-0.8-1.5-0.9-2.6h6.8
				v-0.9c0-1.3-0.4-2.4-1.1-3.2C671.4,875.6,670.4,875.2,669.2,875.2z M666.5,879.4c0.1-0.9,0.4-1.6,0.8-2.1
				c0.5-0.5,1.1-0.8,1.9-0.8c0.8,0,1.4,0.2,1.8,0.7c0.4,0.5,0.6,1.2,0.6,2.1H666.5z"/>
			<rect x="660.8" y="871.3" class="st2" width="1.5" height="13.9"/>
			<path class="st2" d="M675.8,858.9l0.3,1.4h1.1v-6.7c0-1.1-0.3-2-0.8-2.5c-0.6-0.5-1.4-0.8-2.6-0.8c-0.6,0-1.2,0.1-1.7,0.2
				c-0.6,0.2-1.1,0.4-1.6,0.6l0.5,1.1c1-0.5,2-0.8,2.8-0.8c0.7,0,1.3,0.2,1.6,0.5c0.3,0.4,0.5,0.9,0.5,1.7v0.6l-1.7,0.1
				c-3.2,0.1-4.7,1.1-4.7,3.1c0,0.9,0.3,1.6,0.8,2.1c0.6,0.5,1.3,0.7,2.3,0.7c0.7,0,1.3-0.1,1.8-0.3
				C674.8,859.9,675.2,859.5,675.8,858.9L675.8,858.9z M675.7,856.3c0,0.9-0.3,1.6-0.8,2.1c-0.5,0.5-1.3,0.8-2.2,0.8
				c-0.6,0-1-0.1-1.4-0.4c-0.3-0.3-0.5-0.7-0.5-1.2c0-0.7,0.3-1.2,0.8-1.5c0.5-0.3,1.4-0.5,2.6-0.5l1.5-0.1V856.3z"/>
			<path class="st2" d="M660.4,854.7c0-1.3-0.4-2.4-1.1-3.2c-0.7-0.8-1.7-1.2-2.9-1.2c-1.3,0-2.4,0.5-3.1,1.4
				c-0.8,0.9-1.2,2.2-1.2,3.8c0,1.6,0.4,2.8,1.3,3.7c0.8,0.9,2,1.3,3.4,1.3c0.7,0,1.2,0,1.7-0.1c0.5-0.1,1-0.3,1.5-0.5v-1.3
				c-1,0.4-2.1,0.7-3.1,0.7c-1,0-1.8-0.3-2.3-0.9c-0.5-0.6-0.8-1.5-0.9-2.6h6.8L660.4,854.7z M653.7,854.4c0.1-0.9,0.4-1.6,0.8-2.1
				c0.5-0.5,1.1-0.8,1.9-0.8c0.8,0,1.4,0.2,1.8,0.7c0.4,0.5,0.6,1.2,0.6,2.1H653.7z"/>
			<path class="st2" d="M696.5,875.2c-1.3,0-2.4,0.5-3.1,1.4c-0.8,0.9-1.2,2.2-1.2,3.8c0,1.6,0.4,2.8,1.3,3.7c0.8,0.9,2,1.3,3.4,1.3
				c0.7,0,1.2,0,1.7-0.1c0.5-0.1,1-0.3,1.5-0.5v-1.3c-1,0.4-2.1,0.7-3.1,0.7c-1,0-1.8-0.3-2.3-0.9c-0.5-0.6-0.8-1.5-0.9-2.6h6.8
				v-0.9c0-1.3-0.4-2.4-1.1-3.2C698.7,875.6,697.7,875.2,696.5,875.2z M693.8,879.4c0.1-0.9,0.4-1.6,0.8-2.1
				c0.5-0.5,1.1-0.8,1.9-0.8c0.8,0,1.4,0.2,1.8,0.7c0.4,0.5,0.6,1.2,0.6,2.1H693.8z"/>
			<path class="st2" d="M686.4,875.2c-0.7,0-1.3,0.2-1.9,0.4c-0.6,0.3-1,0.7-1.3,1.2h-0.1c-0.5-1.1-1.5-1.7-3-1.7
				c-0.6,0-1.2,0.1-1.7,0.4c-0.5,0.3-0.9,0.6-1.2,1.1h-0.1l-0.2-1.3h-1.2v9.8h1.5v-5.1c0-1.3,0.2-2.2,0.6-2.7c0.4-0.6,1.1-0.8,2-0.8
				c0.7,0,1.2,0.2,1.6,0.6c0.3,0.4,0.5,1,0.5,1.8v6.4h1.5l0-5.5c0-1.1,0.2-1.9,0.7-2.4c0.4-0.5,1.1-0.8,2-0.8c0.7,0,1.2,0.2,1.6,0.6
				c0.3,0.4,0.5,1,0.5,1.8v6.4h1.5v-6.4c0-1.3-0.3-2.2-0.8-2.7C688.3,875.5,687.5,875.2,686.4,875.2z"/>
			<path class="st2" d="M694.5,835.4c0.3,0,0.5-0.1,0.7-0.2v-1.1c-0.1,0-0.3,0.1-0.6,0.1c-0.2,0-0.5,0.1-0.8,0.1
				c-0.5,0-0.9-0.2-1.2-0.5c-0.3-0.3-0.4-0.8-0.4-1.4v-5.8h2.8v-1.2h-2.8v-2.3h-0.9l-0.6,2.1l-1.4,0.6v0.7h1.4v5.8c0,2,0.9,3,2.8,3
				C693.9,835.5,694.2,835.5,694.5,835.4z"/>
		</g>
		<g>
			<polygon class="st2" points="352.2,205.8 390.2,168.7 318.8,86.8 			"/>
			<polygon class="st2" points="390.2,168.7 439.5,153.5 318.8,86.8 			"/>
			<polygon class="st1" points="374.6,183.9 396.2,206.9 390.2,168.7 			"/>
		</g>
		<path class="st3" d="M371.3,304.6c1.1,0.8,2.3,1.6,3.4,2.4l1.1-1.7c-1.1-0.7-2.2-1.5-3.3-2.3L371.3,304.6z"/>
		
			<rect x="388.2" y="170.7" transform="matrix(0.6571 -0.7538 0.7538 0.6571 4.3488 353.0541)" class="st3" width="4.1" height="2"/>
		
			<rect x="378.8" y="181.5" transform="matrix(0.6572 -0.7537 0.7537 0.6572 -7.0293 349.6149)" class="st3" width="4.1" height="2"/>
		<path class="st3" d="M397.5,316.8c1.3,0.3,2.7,0.7,4,1l0.4-2c-1.3-0.3-2.7-0.6-3.9-0.9L397.5,316.8z"/>
		<path class="st3" d="M383.8,311.9c1.2,0.6,2.5,1.2,3.8,1.6l0.8-1.9c-1.2-0.5-2.5-1-3.7-1.6L383.8,311.9z"/>
		<path class="st3" d="M349.7,227.3l-1.9-0.7c-0.5,1.3-0.9,2.6-1.2,4l2,0.6C348.9,229.8,349.2,228.5,349.7,227.3z"/>
		<path class="st3" d="M426.1,317.9l0,2c1.4,0,2.8-0.1,4.1-0.2l-0.1-2C428.8,317.8,427.4,317.9,426.1,317.9z"/>
		<path class="st3" d="M440.2,316.6l0.3,2c1.4-0.2,2.7-0.5,4.1-0.8l-0.4-2C442.8,316.1,441.5,316.4,440.2,316.6z"/>
		<path class="st3" d="M411.7,319.4c1.4,0.1,2.7,0.3,4.1,0.4l0.1-2c-1.3-0.1-2.7-0.2-4-0.3L411.7,319.4z"/>
		<path class="st3" d="M344.1,255.2c0.1,1.4,0.3,2.8,0.4,4.1l2-0.3c-0.2-1.3-0.3-2.7-0.4-4L344.1,255.2z"/>
		<path class="st3" d="M355.6,214.5l-1.7-1.1c-0.7,1.1-1.4,2.4-2,3.6l1.8,1C354.3,216.8,354.9,215.7,355.6,214.5z"/>
		
			<rect x="369.4" y="192.3" transform="matrix(0.6573 -0.7536 0.7536 0.6573 -18.4069 346.1681)" class="st3" width="4.1" height="2"/>
		<path class="st3" d="M346.5,241l-2-0.3c-0.2,1.4-0.3,2.8-0.4,4.1l2,0.1C346.2,243.7,346.3,242.3,346.5,241z"/>
		<path class="st3" d="M346.7,269.5c0.4,1.3,0.8,2.6,1.3,3.9l1.9-0.7c-0.5-1.3-0.9-2.5-1.3-3.8L346.7,269.5z"/>
		<path class="st3" d="M360.6,294.8c0.9,1,1.9,2.1,2.8,3l1.5-1.4c-0.9-0.9-1.9-1.9-2.7-2.9L360.6,294.8z"/>
		<path class="st3" d="M352.3,282.9c0.7,1.2,1.4,2.4,2.1,3.6l1.7-1.1c-0.7-1.1-1.4-2.3-2-3.5L352.3,282.9z"/>
		<path class="st3" d="M364.1,203.2l-1.5-1.3c-0.9,1-1.8,2.1-2.7,3.1l1.6,1.3C362.3,205.3,363.2,204.3,364.1,203.2z"/>
		<path class="st3" d="M466.6,307.1l1,1.8c1.2-0.7,2.4-1.4,3.5-2.2l-1.1-1.7C468.9,305.7,467.8,306.4,466.6,307.1z"/>
		<path class="st3" d="M595.1,255.4c1,0.9,2,1.8,2.9,2.8l1.5-1.4c-1-1-2-1.9-3-2.9L595.1,255.4z"/>
		<path class="st3" d="M583.5,247.6c1.2,0.6,2.4,1.2,3.6,1.9l1-1.8c-1.2-0.7-2.4-1.3-3.7-1.9L583.5,247.6z"/>
		<path class="st3" d="M453.8,313l0.7,1.9c1.3-0.5,2.6-1,3.9-1.5l-0.8-1.9C456.4,312.1,455.1,312.6,453.8,313z"/>
		<path class="st3" d="M570.1,243.5c1.3,0.2,2.6,0.5,3.9,0.8l0.5-2c-1.4-0.3-2.7-0.6-4.1-0.9L570.1,243.5z"/>
		<path class="st3" d="M615.2,275.6l-1.5,1.4c1,1,1.9,2,3,2.9l1.4-1.5C617.1,277.5,616.1,276.6,615.2,275.6z"/>
		<path class="st3" d="M639.6,289.2c0.8,0.1,1.6,0.1,2.4,0.1v-2c-0.8,0-1.5,0-2.3-0.1L639.6,289.2z"/>
		<path class="st3" d="M625.4,285.8c1.3,0.6,2.6,1.1,3.9,1.6l0.7-1.9c-1.3-0.4-2.5-0.9-3.7-1.5L625.4,285.8z"/>
		<path class="st3" d="M556.1,242.3c1.4,0,2.7,0,4,0.1l0.1-2c-1.4-0.1-2.8-0.1-4.1-0.1V242.3z"/>
		<path class="st3" d="M604.6,265.8c0.8,1.1,1.7,2.1,2.5,3.2l1.6-1.3l-2.5-3.2L604.6,265.8z"/>
		<path class="st3" d="M488.4,289.1l1.5,1.4c0.9-1,1.9-2,2.8-3l-1.5-1.4C490.2,287.1,489.3,288.1,488.4,289.1z"/>
		<polygon class="st3" points="497.8,278.3 499.3,279.7 502,276.5 500.4,275.2 		"/>
		<path class="st3" d="M543.5,241.7c-0.6,0.1-1.2,0.3-1.9,0.5l0.6,2c1.3-0.4,2.6-0.6,3.9-0.9l-0.4-2
			C544.9,241.3,544.2,241.5,543.5,241.7z"/>
		<path class="st3" d="M478.1,298.9l1.3,1.6c1.1-0.9,2.1-1.8,3.1-2.7l-1.4-1.5C480.2,297.1,479.2,298,478.1,298.9z"/>
		<path class="st3" d="M528.3,247.9l1.1,1.7c1.1-0.7,2.3-1.4,3.5-2l-0.9-1.8C530.7,246.5,529.4,247.2,528.3,247.9z"/>
		<path class="st3" d="M516.8,256.9l1.4,1.5c1-0.9,2-1.8,3-2.7l-1.3-1.5C518.9,255,517.8,255.9,516.8,256.9z"/>
		<path class="st3" d="M507,267.4l1.6,1.3c0.9-1,1.8-2,2.7-3.1l-1.5-1.4C508.8,265.3,507.9,266.4,507,267.4z"/>
		<path class="st2" d="M1126.4,449.6h-76.6c-7.8,0-14.3,6.4-14.3,14.3v76.6c0,0.2,0,0.4,0,0.7l0,0l-1,28.8l24.5-15.3h67.4
			c7.8,0,14.3-6.4,14.3-14.3v-76.6C1140.7,456,1134.3,449.6,1126.4,449.6z"/>
		<path class="st1" d="M1062.6,499h9.9c-0.2,6.1-1.3,10.7-3,13.9c-1.8,3.2-4.7,5.6-8.5,7.2l4.5,7.3c6.4-2.9,11.1-7.1,14-12.7
			c2.3-4.2,3.4-10.9,3.4-20.2V477h-20.2V499z"/>
		<path class="st1" d="M1095.1,499h9.9c-0.2,6.1-1.3,10.7-3,13.9c-1.8,3.2-4.7,5.6-8.5,7.2l4.5,7.3c6.4-2.9,11.1-7.1,14-12.7
			c2.3-4.2,3.4-10.9,3.4-20.2V477h-20.2V499z"/>
		<path class="st3" d="M915.2,412.6c1,0.9,2,1.8,2.9,2.8l1.5-1.4c-1-1-2-1.9-3-2.9L915.2,412.6z"/>
		<path class="st3" d="M924,532.7l-2,0.1c0,1.4,0.1,2.8,0.2,4.1l2-0.2C924.1,535.4,924,534,924,532.7z"/>
		<path class="st3" d="M923.5,547.1c0.3,1.4,0.6,2.7,0.9,4l2-0.5c-0.3-1.3-0.7-2.6-0.9-3.9L923.5,547.1z"/>
		<path class="st3" d="M903.6,404.8c1.2,0.6,2.4,1.2,3.5,1.9l1-1.8c-1.2-0.7-2.4-1.4-3.7-2L903.6,404.8z"/>
		<path class="st3" d="M924.7,508.2l2,0.4c0.3-1.3,0.6-2.6,0.9-4l-2-0.5C925.3,505.5,925,506.8,924.7,508.2z"/>
		<path class="st3" d="M935.4,438.1c-0.2-0.6-0.4-1.2-0.7-1.8c-0.3-0.7-0.6-1.4-0.9-2.1l-1.9,0.8c0.5,1.2,1,2.5,1.5,3.7L935.4,438.1
			z"/>
		<polygon class="st3" points="928.3,494.2 930.3,494.8 931.4,490.9 929.4,490.3 		"/>
		<path class="st3" d="M927.8,561c0.5,1.3,1.1,2.6,1.7,3.8l1.9-0.9c-0.6-1.2-1.1-2.5-1.6-3.7L927.8,561z"/>
		<path class="st3" d="M890.3,400.7c1.3,0.2,2.6,0.5,3.9,0.8l0.5-2c-1.4-0.3-2.7-0.6-4.1-0.8L890.3,400.7z"/>
		<path class="st3" d="M928.7,425.2c-0.8-1.1-1.6-2.3-2.4-3.4l-1.6,1.2c0.8,1.1,1.6,2.2,2.4,3.3L928.7,425.2z"/>
		<path class="st3" d="M938.1,452.4c-0.1-1.4-0.2-2.8-0.4-4.2l-2,0.3c0.2,1.3,0.3,2.7,0.4,4L938.1,452.4z"/>
		<path class="st3" d="M924.9,518.6l-2-0.3c-0.2,1.4-0.4,2.7-0.5,4.1l2,0.2C924.6,521.3,924.7,519.9,924.9,518.6z"/>
		<path class="st3" d="M861.8,397.6c1.4,0.3,2.7,0.6,4.1,0.8l0.3-2c-1.3-0.2-2.6-0.5-3.9-0.8L861.8,397.6z"/>
		<path class="st3" d="M876.1,399.3c1.4,0.1,2.7,0.2,4.1,0.3l0.1-2l-4.1-0.3L876.1,399.3z"/>
		<path class="st3" d="M848.5,391.4c1.1,0.9,2.3,1.6,3.5,2.3l1-1.8c-1.2-0.7-2.2-1.4-3.3-2.2L848.5,391.4z"/>
		<path class="st3" d="M839.8,382c0.4,0.6,0.9,1.3,1.4,1.9l1.6-1.2c-0.5-0.6-0.9-1.2-1.3-1.8L839.8,382z"/>
		<path class="st3" d="M935.2,466.6l2,0.3c0.2-1.4,0.4-2.7,0.5-4.1l-2-0.2C935.6,463.9,935.4,465.2,935.2,466.6z"/>
		<path class="st3" d="M1061.5,579.6l1.8,0.9c0.6-1.2,1.3-2.5,1.8-3.7l-1.9-0.8C1062.7,577.2,1062.1,578.4,1061.5,579.6z"/>
		<path class="st3" d="M1053.6,591.2l1.6,1.3c0.9-1.1,1.7-2.1,2.6-3.3l-1.7-1.2C1055.3,589.2,1054.5,590.2,1053.6,591.2z"/>
		<path class="st3" d="M1043.5,601l1.3,1.6c1.1-0.9,2.1-1.7,3.2-2.7l-1.4-1.5C1045.6,599.4,1044.5,600.2,1043.5,601z"/>
		<path class="st3" d="M1066.7,566.5l2,0.5c0.4-1.3,0.7-2.7,1-4l-2-0.5C1067.4,563.9,1067.1,565.2,1066.7,566.5z"/>
		<path class="st3" d="M933.2,476.5c-0.3,1.3-0.7,2.6-1,3.9l2,0.5c0.3-1.3,0.7-2.7,1-4L933.2,476.5z"/>
		<path class="st3" d="M1031.6,608.6l0.9,1.8c1.2-0.6,2.5-1.3,3.7-2l-1-1.8C1034,607.4,1032.8,608,1031.6,608.6z"/>
		
			<rect x="1073.3" y="536.1" transform="matrix(0.2492 -0.9685 0.9685 0.2492 287.2913 1444.7363)" class="st3" width="4.1" height="2"/>
		
			<rect x="1069.8" y="549.9" transform="matrix(0.251 -0.968 0.968 0.251 269.5116 1450.1932)" class="st3" width="4.1" height="2"/>
		
			<rect x="1076.9" y="522.2" transform="matrix(0.251 -0.968 0.968 0.251 301.6865 1436.3359)" class="st3" width="4.1" height="2"/>
		<path class="st3" d="M963.5,605.6c1.1,0.8,2.3,1.5,3.5,2.2l1-1.8c-1.1-0.7-2.3-1.4-3.4-2.2L963.5,605.6z"/>
		<path class="st3" d="M942.5,585.8c0.9,1.1,1.7,2.1,2.6,3.2l1.6-1.3c-0.9-1-1.7-2.1-2.6-3.1L942.5,585.8z"/>
		<path class="st3" d="M952.2,596.5c1,0.9,2,1.9,3.1,2.8l1.3-1.6c-1-0.9-2.1-1.8-3-2.7L952.2,596.5z"/>
		<path class="st3" d="M934.3,573.9c0.7,1.2,1.4,2.4,2.2,3.5l1.7-1.1c-0.7-1.1-1.5-2.3-2.1-3.4L934.3,573.9z"/>
		<path class="st3" d="M976.2,612.4c1.3,0.5,2.6,1,3.9,1.5l0.7-1.9c-1.3-0.4-2.5-0.9-3.8-1.4L976.2,612.4z"/>
		<path class="st3" d="M1004.5,615.6l0.1,2c1.4,0,2.8-0.1,4.1-0.3l-0.2-2C1007.2,615.5,1005.9,615.6,1004.5,615.6z"/>
		<path class="st3" d="M990.1,616.6c1.4,0.3,2.7,0.5,4.1,0.6l0.2-2c-1.3-0.2-2.7-0.4-4-0.6L990.1,616.6z"/>
		<path class="st3" d="M1018.4,613.5l0.5,2c1.3-0.3,2.7-0.7,4-1.2l-0.6-1.9C1021,612.8,1019.7,613.2,1018.4,613.5z"/>
		<circle class="st2" cx="1007.7" cy="226.5" r="25.7"/>
		<circle class="st1" cx="1056.8" cy="170" r="14.8"/>
		<circle class="st1" cx="225.6" cy="631.7" r="28.1"/>
		<circle class="st2" cx="250.5" cy="532.5" r="15.7"/>
		<circle class="st2" cx="352.1" cy="652.1" r="15.7"/>
		<circle class="st2" cx="1072.9" cy="264.6" r="12.8"/>
	</g>
	<g>
		<path class="st1" d="M959,476.7h-80.6c-8.8,0-15.9,7.2-15.9,15.9V522c0,8.8,7.2,15.9,15.9,15.9H959c8.8,0,15.9-7.2,15.9-15.9
			v-29.4C975,483.8,967.8,476.7,959,476.7z"/>
		<path class="st2" d="M937.1,502.2c4.1,0,7.5-3.3,7.5-7.5c0-4.1-3.3-7.5-7.5-7.5c-4.1,0-7.5,3.3-7.5,7.5c0,0.4,0,0.7,0.1,1.1
			l-18.8,6.7c-1.7-2.9-4.8-4.8-8.3-4.8c-5.3,0-9.6,4.3-9.6,9.6c0,5.3,4.3,9.6,9.6,9.6c3.6,0,6.7-1.9,8.3-4.8l18.8,6.7
			c0,0.3-0.1,0.7-0.1,1.1c0,4.1,3.3,7.5,7.5,7.5c4.1,0,7.5-3.3,7.5-7.5c0-4.1-3.3-7.5-7.5-7.5c-2.7,0-5.1,1.5-6.4,3.6l-18.7-6.6
			c0.2-0.7,0.2-1.4,0.2-2.2c0-0.7-0.1-1.5-0.2-2.2l18.7-6.6C932,500.7,934.4,502.2,937.1,502.2z"/>
	</g>
	<g>
		<path class="st3" d="M467.3,341.8L467.3,341.8v-73.3c0-4.3-3.5-7.7-7.7-7.7H351.1c-4.3,0-7.7,3.5-7.7,7.7v73.8l-28.6,31v9h181.1
			v-9l-28.6-31V341.8z"/>
		<rect x="352.6" y="271.6" class="st2" width="105.6" height="59.9"/>
		<polygon class="st1" points="352.6,301.5 328.1,326 335.1,332.9 359.5,308.5 368.8,317.7 376.9,284.2 343.3,292.3 		"/>
		<polygon class="st2" points="364.2,350.9 353.8,363.1 456.9,363.1 446.5,350.9 		"/>
		<rect x="314.8" y="373.3" class="st1" width="181.1" height="9"/>
	</g>
</g>
</svg>
